<svg xmlns="http://www.w3.org/2000/svg" xmlns:xlink="http://www.w3.org/1999/xlink" width="300" zoomAndPan="magnify" viewBox="0 0 224.87999 225" height="300" preserveAspectRatio="xMidYMid meet" version="1.0"><defs><clipPath id="2275bf3b0f"><path d="M 54.515625 54.578125 L 170.703125 54.578125 L 170.703125 170.765625 L 54.515625 170.765625 Z M 54.515625 54.578125 " clip-rule="nonzero"/></clipPath></defs><g clip-path="url(#2275bf3b0f)"><path fill="#c1121f" d="M 170.351562 104.417969 L 131.929688 104.417969 L 159.101562 77.246094 L 147.683594 65.828125 L 120.511719 93 L 120.511719 54.578125 L 104.359375 54.578125 L 104.359375 93 L 77.1875 65.828125 L 65.769531 77.246094 L 92.941406 104.417969 L 54.515625 104.417969 L 54.515625 120.570312 L 92.941406 120.570312 L 65.769531 147.742188 L 77.1875 159.160156 L 104.359375 131.988281 L 104.359375 170.414062 L 120.511719 170.414062 L 120.511719 131.988281 L 147.683594 159.160156 L 159.101562 147.742188 L 131.929688 120.570312 L 170.351562 120.570312 Z M 170.351562 104.417969 " fill-opacity="1" fill-rule="nonzero"/></g></svg>