<svg xmlns="http://www.w3.org/2000/svg" xmlns:xlink="http://www.w3.org/1999/xlink" width="300" zoomAndPan="magnify" viewBox="0 0 224.87999 225" height="300" preserveAspectRatio="xMidYMid meet" version="1.0"><defs><clipPath id="1fd655c9d3"><path d="M 41.839844 78.171875 L 182.765625 78.171875 L 182.765625 147.132812 L 41.839844 147.132812 Z M 41.839844 78.171875 " clip-rule="nonzero"/></clipPath></defs><g clip-path="url(#1fd655c9d3)"><path fill="#03030d" d="M 112.304688 78.195312 C 131.6875 78.195312 149.246094 82.011719 161.96875 88.175781 C 174.816406 94.402344 182.765625 103.054688 182.765625 112.652344 C 182.765625 122.25 174.816406 130.902344 161.96875 137.128906 C 149.246094 143.292969 131.6875 147.109375 112.304688 147.109375 C 92.917969 147.109375 75.359375 143.292969 62.636719 137.128906 C 49.789062 130.902344 41.839844 122.25 41.839844 112.652344 C 41.839844 103.054688 49.789062 94.402344 62.636719 88.175781 C 75.359375 82.011719 92.917969 78.195312 112.304688 78.195312 Z M 161.460938 89.234375 C 148.890625 83.140625 131.511719 79.375 112.304688 79.375 C 93.09375 79.375 75.714844 83.140625 63.144531 89.234375 C 50.703125 95.261719 43.007812 103.546875 43.007812 112.652344 C 43.007812 121.757812 50.703125 130.042969 63.144531 136.070312 C 75.714844 142.164062 93.09375 145.933594 112.304688 145.933594 C 131.511719 145.933594 148.890625 142.164062 161.460938 136.070312 C 173.902344 130.042969 181.597656 121.757812 181.597656 112.652344 C 181.597656 103.546875 173.902344 95.261719 161.460938 89.234375 Z M 161.460938 89.234375 " fill-opacity="1" fill-rule="nonzero"/></g><path fill="#03030d" d="M 112.304688 81.402344 C 130.160156 81.402344 146.339844 84.855469 158.058594 90.4375 C 169.914062 96.085938 177.246094 103.9375 177.246094 112.652344 C 177.246094 121.367188 169.914062 129.21875 158.058594 134.867188 C 146.339844 140.449219 130.160156 143.90625 112.304688 143.90625 C 94.445312 143.90625 78.265625 140.449219 66.546875 134.867188 C 54.691406 129.21875 47.359375 121.367188 47.359375 112.652344 C 47.359375 103.9375 54.691406 96.085938 66.546875 90.4375 C 78.265625 84.855469 94.445312 81.402344 112.304688 81.402344 Z M 157.5625 91.5 C 145.992188 85.988281 129.988281 82.578125 112.304688 82.578125 C 94.617188 82.578125 78.613281 85.988281 67.042969 91.5 C 55.605469 96.949219 48.527344 104.433594 48.527344 112.652344 C 48.527344 120.871094 55.605469 128.355469 67.042969 133.804688 C 78.613281 139.316406 94.617188 142.726562 112.304688 142.726562 C 129.988281 142.726562 145.992188 139.316406 157.5625 133.804688 C 169 128.355469 176.078125 120.871094 176.078125 112.652344 C 176.078125 104.433594 169 96.949219 157.5625 91.5 Z M 157.5625 91.5 " fill-opacity="1" fill-rule="nonzero"/><path fill="#03030d" d="M 112.304688 81.402344 C 128.804688 81.402344 143.761719 84.859375 154.59375 90.449219 C 165.546875 96.097656 172.324219 103.949219 172.324219 112.652344 C 172.324219 121.359375 165.546875 129.207031 154.59375 134.855469 C 143.761719 140.445312 128.804688 143.90625 112.304688 143.90625 C 95.800781 143.90625 80.847656 140.445312 70.011719 134.855469 C 59.058594 129.207031 52.28125 121.359375 52.28125 112.652344 C 52.28125 103.949219 59.058594 96.097656 70.011719 90.449219 C 80.847656 84.859375 95.800781 81.402344 112.304688 81.402344 Z M 154.066406 91.492188 C 143.390625 85.984375 128.625 82.578125 112.304688 82.578125 C 95.980469 82.578125 81.214844 85.984375 70.539062 91.492188 C 59.980469 96.9375 53.449219 104.421875 53.449219 112.652344 C 53.449219 120.882812 59.980469 128.367188 70.539062 133.8125 C 81.214844 139.320312 95.980469 142.726562 112.304688 142.726562 C 128.625 142.726562 143.390625 139.320312 154.066406 133.8125 C 164.625 128.367188 171.15625 120.882812 171.15625 112.652344 C 171.15625 104.421875 164.625 96.9375 154.066406 91.492188 Z M 154.066406 91.492188 " fill-opacity="1" fill-rule="nonzero"/><path fill="#03030d" d="M 112.304688 81.402344 C 126.953125 81.402344 140.230469 84.863281 149.847656 90.460938 C 159.5625 96.117188 165.570312 103.960938 165.570312 112.652344 C 165.570312 121.347656 159.5625 129.1875 149.847656 134.84375 C 140.230469 140.441406 126.953125 143.90625 112.304688 143.90625 C 97.652344 143.90625 84.375 140.441406 74.757812 134.84375 C 65.042969 129.1875 59.035156 121.347656 59.035156 112.652344 C 59.035156 103.960938 65.042969 96.117188 74.757812 90.460938 C 84.375 84.863281 97.652344 81.402344 112.304688 81.402344 Z M 149.261719 91.476562 C 139.816406 85.980469 126.75 82.578125 112.304688 82.578125 C 97.855469 82.578125 84.789062 85.980469 75.34375 91.476562 C 65.988281 96.921875 60.203125 104.410156 60.203125 112.652344 C 60.203125 120.894531 65.988281 128.382812 75.34375 133.828125 C 84.789062 139.328125 97.855469 142.726562 112.304688 142.726562 C 126.75 142.726562 139.816406 139.328125 149.261719 133.828125 C 158.617188 128.382812 164.402344 120.894531 164.402344 112.652344 C 164.402344 104.410156 158.617188 96.921875 149.261719 91.476562 Z M 149.261719 91.476562 " fill-opacity="1" fill-rule="nonzero"/><path fill="#03030d" d="M 112.304688 81.402344 C 124.542969 81.402344 135.632812 84.875 143.667969 90.488281 C 151.765625 96.144531 156.773438 103.980469 156.773438 112.652344 C 156.773438 121.324219 151.765625 129.160156 143.667969 134.816406 C 135.632812 140.429688 124.542969 143.90625 112.304688 143.90625 C 100.0625 143.90625 88.972656 140.433594 80.9375 134.816406 C 72.839844 129.160156 67.832031 121.324219 67.832031 112.652344 C 67.832031 103.980469 72.839844 96.144531 80.9375 90.488281 C 88.972656 84.875 100.0625 81.402344 112.304688 81.402344 Z M 143.003906 91.453125 C 135.15625 85.96875 124.300781 82.578125 112.304688 82.578125 C 100.304688 82.578125 89.449219 85.96875 81.601562 91.453125 C 73.816406 96.890625 69 104.390625 69 112.652344 C 69 120.917969 73.816406 128.414062 81.601562 133.851562 C 89.449219 139.335938 100.304688 142.726562 112.304688 142.726562 C 124.300781 142.726562 135.15625 139.335938 143.003906 133.851562 C 150.789062 128.414062 155.605469 120.917969 155.605469 112.652344 C 155.605469 104.390625 150.789062 96.890625 143.003906 91.453125 Z M 143.003906 91.453125 " fill-opacity="1" fill-rule="nonzero"/><path fill="#03030d" d="M 112.304688 81.402344 C 121.773438 81.402344 130.351562 84.890625 136.5625 90.535156 C 142.792969 96.191406 146.644531 104.011719 146.644531 112.652344 C 146.644531 121.292969 142.792969 129.113281 136.5625 134.773438 C 130.351562 140.414062 121.773438 143.90625 112.304688 143.90625 C 102.832031 143.90625 94.253906 140.414062 88.042969 134.773438 C 81.8125 129.113281 77.960938 121.292969 77.960938 112.652344 C 77.960938 104.011719 81.8125 96.191406 88.042969 90.535156 C 94.253906 84.890625 102.832031 81.402344 112.304688 81.402344 Z M 135.78125 91.40625 C 129.777344 85.953125 121.476562 82.578125 112.304688 82.578125 C 103.128906 82.578125 94.828125 85.953125 88.824219 91.40625 C 82.835938 96.847656 79.128906 104.359375 79.128906 112.652344 C 79.128906 120.945312 82.832031 128.457031 88.824219 133.898438 C 94.828125 139.351562 103.128906 142.726562 112.304688 142.726562 C 121.476562 142.726562 129.777344 139.351562 135.78125 133.898438 C 141.773438 128.457031 145.476562 120.945312 145.476562 112.652344 C 145.476562 104.359375 141.773438 96.847656 135.78125 91.40625 Z M 135.78125 91.40625 " fill-opacity="1" fill-rule="nonzero"/><path fill="#03030d" d="M 112.304688 81.402344 C 118.972656 81.402344 125.003906 84.921875 129.359375 90.613281 C 133.683594 96.257812 136.359375 104.054688 136.359375 112.652344 C 136.359375 121.25 133.683594 129.046875 129.359375 134.695312 C 125.003906 140.382812 118.972656 143.90625 112.304688 143.90625 C 105.632812 143.90625 99.601562 140.382812 95.246094 134.695312 C 90.921875 129.046875 88.246094 121.25 88.246094 112.652344 C 88.246094 104.054688 90.921875 96.257812 95.246094 90.613281 C 99.601562 84.921875 105.632812 81.402344 112.304688 81.402344 Z M 128.4375 91.328125 C 124.300781 85.921875 118.59375 82.578125 112.304688 82.578125 C 106.011719 82.578125 100.304688 85.921875 96.167969 91.328125 C 91.996094 96.777344 89.417969 104.316406 89.417969 112.652344 C 89.417969 120.988281 91.996094 128.527344 96.167969 133.976562 C 100.304688 139.382812 106.011719 142.726562 112.304688 142.726562 C 118.59375 142.726562 124.300781 139.382812 128.4375 133.976562 C 132.609375 128.527344 135.1875 120.988281 135.1875 112.652344 C 135.1875 104.316406 132.609375 96.777344 128.4375 91.328125 Z M 128.4375 91.328125 " fill-opacity="1" fill-rule="nonzero"/><path fill="#000000" d="M 47.945312 112.0625 L 176.660156 112.0625 L 176.660156 113.242188 L 47.945312 113.242188 Z M 47.945312 112.0625 " fill-opacity="1" fill-rule="nonzero"/><path fill="#03030d" d="M 112.304688 81.402344 C 116.210938 81.402344 119.703125 84.96875 122.191406 90.738281 C 124.617188 96.359375 126.117188 104.109375 126.117188 112.652344 C 126.117188 121.195312 124.617188 128.945312 122.191406 134.566406 C 119.703125 140.335938 116.210938 143.90625 112.304688 143.90625 C 108.394531 143.90625 104.902344 140.335938 102.414062 134.566406 C 99.988281 128.945312 98.488281 121.195312 98.488281 112.652344 C 98.488281 104.109375 99.988281 96.359375 102.414062 90.738281 C 104.902344 84.96875 108.394531 81.402344 112.304688 81.402344 Z M 121.125 91.203125 C 118.824219 85.875 115.703125 82.578125 112.304688 82.578125 C 108.902344 82.578125 105.78125 85.875 103.480469 91.203125 C 101.117188 96.679688 99.65625 104.261719 99.65625 112.652344 C 99.65625 121.042969 101.117188 128.625 103.480469 134.101562 C 105.78125 139.429688 108.902344 142.726562 112.304688 142.726562 C 115.703125 142.726562 118.824219 139.429688 121.125 134.101562 C 123.488281 128.625 124.949219 121.042969 124.949219 112.652344 C 124.949219 104.261719 123.488281 96.679688 121.125 91.203125 Z M 121.125 91.203125 " fill-opacity="1" fill-rule="nonzero"/><path fill="#03030d" d="M 112.304688 81.402344 C 113.664062 81.402344 114.777344 85.03125 115.480469 90.902344 C 116.148438 96.472656 116.5625 104.164062 116.5625 112.652344 C 116.5625 121.140625 116.148438 128.832031 115.480469 134.40625 C 114.777344 140.273438 113.664062 143.90625 112.304688 143.90625 C 110.941406 143.90625 109.828125 140.273438 109.125 134.40625 C 108.457031 128.832031 108.042969 121.140625 108.042969 112.652344 C 108.042969 104.164062 108.457031 96.472656 109.125 90.902344 C 109.828125 85.03125 110.941406 81.402344 112.304688 81.402344 Z M 114.320312 91.039062 C 113.695312 85.8125 112.972656 82.578125 112.304688 82.578125 C 111.632812 82.578125 110.910156 85.8125 110.285156 91.039062 C 109.621094 96.5625 109.210938 104.207031 109.210938 112.652344 C 109.210938 121.101562 109.621094 128.742188 110.285156 134.265625 C 110.910156 139.496094 111.632812 142.726562 112.304688 142.726562 C 112.972656 142.726562 113.695312 139.496094 114.320312 134.265625 C 114.984375 128.742188 115.394531 121.101562 115.394531 112.652344 C 115.394531 104.207031 114.984375 96.5625 114.320312 91.039062 Z M 114.320312 91.039062 " fill-opacity="1" fill-rule="nonzero"/><path fill="#000000" d="M 50.867188 102.902344 L 173.738281 102.902344 L 173.738281 104.078125 L 50.867188 104.078125 Z M 50.867188 102.902344 " fill-opacity="1" fill-rule="nonzero"/><path fill="#000000" d="M 57.730469 95.800781 L 166.875 95.800781 L 166.875 96.980469 L 57.730469 96.980469 Z M 57.730469 95.800781 " fill-opacity="1" fill-rule="nonzero"/><path fill="#000000" d="M 70.335938 88.816406 L 154.273438 88.816406 L 154.273438 89.992188 L 70.335938 89.992188 Z M 70.335938 88.816406 " fill-opacity="1" fill-rule="nonzero"/><path fill="#000000" d="M 84.125 84.488281 L 140.480469 84.488281 L 140.480469 85.664062 L 84.125 85.664062 Z M 84.125 84.488281 " fill-opacity="1" fill-rule="nonzero"/><path fill="#000000" d="M 47.945312 112.066406 L 176.660156 112.066406 L 176.660156 113.242188 L 47.945312 113.242188 Z M 47.945312 112.066406 " fill-opacity="1" fill-rule="nonzero"/><path fill="#000000" d="M 50.867188 121.230469 L 173.738281 121.230469 L 173.738281 122.40625 L 50.867188 122.40625 Z M 50.867188 121.230469 " fill-opacity="1" fill-rule="nonzero"/><path fill="#000000" d="M 57.730469 128.328125 L 166.875 128.328125 L 166.875 129.503906 L 57.730469 129.503906 Z M 57.730469 128.328125 " fill-opacity="1" fill-rule="nonzero"/><path fill="#000000" d="M 70.335938 135.316406 L 154.273438 135.316406 L 154.273438 136.492188 L 70.335938 136.492188 Z M 70.335938 135.316406 " fill-opacity="1" fill-rule="nonzero"/><path fill="#000000" d="M 84.125 139.644531 L 140.480469 139.644531 L 140.480469 140.820312 L 84.125 140.820312 Z M 84.125 139.644531 " fill-opacity="1" fill-rule="nonzero"/></svg>