<svg xmlns="http://www.w3.org/2000/svg" xmlns:xlink="http://www.w3.org/1999/xlink" width="300" zoomAndPan="magnify" viewBox="0 0 224.87999 225" height="300" preserveAspectRatio="xMidYMid meet" version="1.0"><defs><clipPath id="73b8acc2f1"><path d="M 124 112.5 L 152 112.5 L 152 136.488281 L 124 136.488281 Z M 124 112.5 " clip-rule="nonzero"/></clipPath><clipPath id="fbb700c895"><path d="M 151 112.5 L 178.945312 112.5 L 178.945312 136.488281 L 151 136.488281 Z M 151 112.5 " clip-rule="nonzero"/></clipPath></defs><path fill="#c1121f" d="M 64.125 135.941406 L 52.472656 135.941406 C 48.917969 135.941406 46.351562 132.539062 47.324219 129.121094 L 50.78125 117.035156 C 51.4375 114.738281 53.535156 113.152344 55.925781 113.152344 L 67.582031 113.152344 C 71.136719 113.152344 73.703125 116.554688 72.726562 119.972656 L 69.273438 132.058594 C 68.617188 134.355469 66.511719 135.941406 64.125 135.941406 Z M 64.125 135.941406 " fill-opacity="1" fill-rule="nonzero"/><path fill="#c1121f" d="M 89.941406 135.941406 L 78.285156 135.941406 C 74.730469 135.941406 72.164062 132.539062 73.140625 129.121094 L 76.59375 117.035156 C 77.253906 114.738281 79.351562 113.152344 81.738281 113.152344 L 93.398438 113.152344 C 96.953125 113.152344 99.519531 116.554688 98.542969 119.972656 L 95.089844 132.058594 C 94.429688 134.355469 92.332031 135.941406 89.941406 135.941406 Z M 89.941406 135.941406 " fill-opacity="1" fill-rule="nonzero"/><path fill="#c1121f" d="M 115.761719 135.941406 L 104.105469 135.941406 C 100.550781 135.941406 97.984375 132.539062 98.960938 129.121094 L 102.414062 117.035156 C 103.070312 114.738281 105.171875 113.152344 107.558594 113.152344 L 119.210938 113.152344 C 122.765625 113.152344 125.332031 116.554688 124.359375 119.972656 L 120.902344 132.058594 C 120.25 134.355469 118.148438 135.941406 115.761719 135.941406 Z M 115.761719 135.941406 " fill-opacity="1" fill-rule="nonzero"/><g clip-path="url(#73b8acc2f1)"><path fill="#c1121f" d="M 142.257812 136.59375 L 130.597656 136.59375 C 128.699219 136.59375 126.949219 135.722656 125.808594 134.203125 C 124.664062 132.683594 124.304688 130.765625 124.828125 128.9375 L 128.28125 116.851562 C 128.640625 115.589844 129.386719 114.5 130.4375 113.710938 C 131.484375 112.917969 132.738281 112.5 134.054688 112.5 L 145.710938 112.5 C 147.609375 112.5 149.359375 113.371094 150.5 114.890625 C 151.644531 116.410156 152.003906 118.328125 151.480469 120.15625 L 148.027344 132.242188 C 147.667969 133.503906 146.921875 134.59375 145.871094 135.382812 C 144.824219 136.171875 143.570312 136.59375 142.257812 136.59375 Z M 134.054688 113.804688 C 131.964844 113.804688 130.109375 115.207031 129.535156 117.210938 L 126.078125 129.296875 C 125.671875 130.726562 125.949219 132.230469 126.847656 133.421875 C 127.742188 134.609375 129.109375 135.289062 130.597656 135.289062 L 142.257812 135.289062 C 144.34375 135.289062 146.199219 133.882812 146.773438 131.878906 L 150.230469 119.796875 C 150.636719 118.367188 150.359375 116.863281 149.460938 115.671875 C 148.566406 114.484375 147.199219 113.804688 145.710938 113.804688 Z M 134.054688 113.804688 " fill-opacity="1" fill-rule="nonzero"/></g><g clip-path="url(#fbb700c895)"><path fill="#c1121f" d="M 168.78125 136.59375 L 157.121094 136.59375 C 155.222656 136.59375 153.476562 135.722656 152.332031 134.203125 C 151.191406 132.683594 150.828125 130.765625 151.351562 128.9375 L 154.804688 116.851562 C 155.164062 115.589844 155.914062 114.5 156.960938 113.710938 C 158.011719 112.917969 159.261719 112.5 160.578125 112.5 L 172.230469 112.5 C 174.128906 112.5 175.878906 113.371094 177.019531 114.890625 C 178.164062 116.410156 178.523438 118.328125 178 120.15625 L 174.546875 132.242188 C 174.1875 133.503906 173.441406 134.59375 172.390625 135.382812 C 171.34375 136.171875 170.09375 136.59375 168.78125 136.59375 Z M 160.578125 113.804688 C 158.488281 113.804688 156.632812 115.207031 156.058594 117.210938 L 152.605469 129.296875 C 152.195312 130.726562 152.472656 132.230469 153.371094 133.421875 C 154.269531 134.609375 155.636719 135.289062 157.121094 135.289062 L 168.78125 135.289062 C 170.867188 135.289062 172.726562 133.882812 173.300781 131.878906 L 176.753906 119.796875 C 177.160156 118.367188 176.882812 116.863281 175.988281 115.671875 C 175.089844 114.484375 173.722656 113.804688 172.234375 113.804688 Z M 160.578125 113.804688 " fill-opacity="1" fill-rule="nonzero"/></g></svg>