<svg xmlns="http://www.w3.org/2000/svg" xmlns:xlink="http://www.w3.org/1999/xlink" width="300" zoomAndPan="magnify" viewBox="0 0 224.87999 225" height="300" preserveAspectRatio="xMidYMid meet" version="1.0"><defs><clipPath id="0be8b92768"><path d="M 56.652344 46.773438 L 168.34375 46.773438 L 168.34375 177.953125 L 56.652344 177.953125 Z M 56.652344 46.773438 " clip-rule="nonzero"/></clipPath></defs><g clip-path="url(#0be8b92768)"><path fill="#c1121f" d="M 56.652344 46.785156 L 168.28125 46.785156 L 168.28125 178.183594 L 56.652344 178.183594 Z M 56.652344 46.785156 " fill-opacity="1" fill-rule="evenodd"/></g><path fill="#000000" d="M 62.25 51.730469 L 163.058594 51.730469 L 163.058594 173.242188 L 61.878906 173.242188 L 61.878906 51.730469 Z M 162.316406 52.472656 L 62.617188 52.472656 L 62.617188 172.5 L 162.316406 172.5 Z M 162.316406 52.472656 " fill-opacity="1" fill-rule="nonzero"/><path fill="#000000" d="M 106.378906 72.109375 L 162.953125 72.109375 L 162.953125 152.859375 L 106.378906 152.859375 Z M 106.378906 72.109375 " fill-opacity="1" fill-rule="evenodd"/><path fill="#c1121f" d="M 163.1875 82.640625 L 163.1875 146.84375 C 163.1875 146.9375 163.132812 147.015625 163.054688 147.054688 C 160.375 148.53125 157.496094 149.6875 154.460938 150.46875 C 151.515625 151.226562 148.429688 151.628906 145.253906 151.628906 C 135.066406 151.628906 125.84375 147.5 119.167969 140.824219 C 112.496094 134.148438 108.367188 124.929688 108.367188 114.742188 C 108.367188 104.554688 112.496094 95.335938 119.167969 88.660156 C 125.84375 81.984375 135.066406 77.855469 145.253906 77.855469 C 148.429688 77.855469 151.515625 78.257812 154.460938 79.015625 C 157.5 79.796875 160.386719 80.957031 163.066406 82.4375 C 163.140625 82.480469 163.1875 82.558594 163.1875 82.640625 Z M 162.722656 146.707031 L 162.722656 82.777344 C 160.105469 81.34375 157.296875 80.222656 154.347656 79.464844 C 151.441406 78.71875 148.394531 78.320312 145.253906 78.320312 C 135.195312 78.320312 126.089844 82.394531 119.496094 88.988281 C 112.90625 95.578125 108.828125 104.683594 108.828125 114.742188 C 108.828125 124.800781 112.90625 133.90625 119.496094 140.496094 C 126.089844 147.085938 135.195312 151.164062 145.253906 151.164062 C 148.394531 151.164062 151.441406 150.765625 154.347656 150.019531 C 157.296875 149.261719 160.105469 148.140625 162.722656 146.707031 Z M 162.722656 146.707031 " fill-opacity="1" fill-rule="nonzero"/><path fill="#c1121f" d="M 130.761719 81.316406 C 125.832031 83.457031 121.464844 86.65625 117.953125 90.628906 C 114.46875 94.574219 111.824219 99.28125 110.300781 104.464844 C 110.03125 106.75 110.074219 108.988281 110.582031 110.992188 C 111.027344 112.761719 111.839844 114.347656 113.113281 115.621094 C 116.523438 119.03125 121.191406 119.824219 126.113281 118.667969 C 131.066406 117.5 136.277344 114.363281 140.71875 109.921875 C 142.710938 107.929688 144.410156 105.664062 145.75 103.300781 C 147.796875 99.6875 149.015625 95.835938 149.183594 92.355469 C 149.347656 88.898438 148.476562 85.808594 146.351562 83.683594 C 145.796875 83.128906 145.15625 82.636719 144.425781 82.222656 C 142.695312 81.242188 140.648438 80.734375 138.464844 80.585938 C 135.996094 80.421875 133.347656 80.71875 130.761719 81.316406 Z M 117.609375 90.324219 C 121.164062 86.300781 125.589844 83.058594 130.585938 80.890625 C 130.601562 80.882812 130.621094 80.875 130.640625 80.871094 C 133.273438 80.261719 135.972656 79.957031 138.496094 80.125 C 140.746094 80.277344 142.855469 80.804688 144.652344 81.820312 C 145.421875 82.257812 146.097656 82.773438 146.679688 83.355469 C 148.902344 85.582031 149.816406 88.792969 149.644531 92.375 C 149.476562 95.929688 148.234375 99.851562 146.152344 103.527344 C 144.789062 105.929688 143.066406 108.226562 141.046875 110.25 C 136.542969 114.75 131.257812 117.933594 126.21875 119.117188 C 121.144531 120.3125 116.320312 119.484375 112.785156 115.949219 C 111.449219 114.613281 110.601562 112.953125 110.132812 111.105469 C 109.609375 109.035156 109.5625 106.734375 109.84375 104.394531 C 109.84375 104.382812 109.847656 104.371094 109.851562 104.359375 C 111.390625 99.097656 114.074219 94.324219 117.609375 90.324219 Z M 117.609375 90.324219 " fill-opacity="1" fill-rule="nonzero"/><path fill="#c1121f" d="M 145.253906 78.320312 C 135.195312 78.320312 126.089844 82.394531 119.496094 88.988281 C 112.90625 95.578125 108.828125 104.683594 108.828125 114.742188 C 108.828125 116.167969 108.910156 117.574219 109.070312 118.957031 C 109.234375 120.355469 109.472656 121.730469 109.789062 123.078125 C 110.535156 124.589844 111.457031 125.875 112.527344 126.945312 C 115.378906 129.796875 119.273438 131.101562 123.617188 131.125 C 127.984375 131.152344 132.808594 129.878906 137.5 127.578125 C 141.746094 125.492188 145.882812 122.558594 149.46875 118.972656 C 154.691406 113.75 158.152344 108.160156 159.945312 102.824219 C 161.308594 98.769531 161.703125 94.863281 161.167969 91.382812 C 160.636719 87.917969 159.183594 84.878906 156.839844 82.539062 C 155.175781 80.871094 153.058594 79.558594 150.507812 78.699219 C 149.644531 78.574219 148.773438 78.480469 147.894531 78.414062 C 147.023438 78.351562 146.144531 78.320312 145.253906 78.320312 Z M 119.171875 88.660156 C 125.84375 81.984375 135.066406 77.855469 145.253906 77.855469 C 146.148438 77.855469 147.039062 77.890625 147.925781 77.953125 C 148.824219 78.019531 149.710938 78.113281 150.59375 78.242188 C 150.605469 78.246094 150.621094 78.246094 150.632812 78.253906 C 153.265625 79.136719 155.449219 80.492188 157.167969 82.210938 C 159.582031 84.621094 161.082031 87.753906 161.628906 91.316406 C 162.171875 94.863281 161.769531 98.84375 160.382812 102.972656 C 158.570312 108.371094 155.070312 114.027344 149.796875 119.300781 C 146.175781 122.917969 142 125.882812 137.703125 127.992188 C 132.949219 130.324219 128.054688 131.613281 123.613281 131.589844 C 119.148438 131.5625 115.144531 130.214844 112.199219 127.269531 C 111.097656 126.167969 110.140625 124.839844 109.371094 123.269531 C 109.359375 123.25 109.347656 123.230469 109.34375 123.207031 C 109.023438 121.835938 108.777344 120.433594 108.613281 119.007812 C 108.449219 117.605469 108.367188 116.183594 108.367188 114.742188 C 108.367188 104.554688 112.496094 95.335938 119.167969 88.660156 Z M 119.171875 88.660156 " fill-opacity="1" fill-rule="nonzero"/><path fill="#c1121f" d="M 163.1875 82.640625 L 163.1875 121.730469 C 163.1875 121.789062 163.164062 121.839844 163.132812 121.878906 C 162.523438 122.710938 161.882812 123.527344 161.214844 124.324219 C 160.550781 125.113281 159.851562 125.890625 159.125 126.644531 L 158.992188 126.78125 C 151.796875 134.226562 143.34375 138.933594 135.449219 140.589844 C 127.523438 142.25 120.148438 140.839844 115.152344 136.035156 L 115.109375 135.996094 C 115.097656 135.984375 115.089844 135.972656 115.082031 135.960938 C 112.929688 132.910156 111.226562 129.515625 110.078125 125.875 C 108.964844 122.363281 108.367188 118.621094 108.367188 114.742188 C 108.367188 104.554688 112.496094 95.335938 119.167969 88.660156 C 125.84375 81.984375 135.066406 77.855469 145.25 77.855469 C 148.429688 77.855469 151.515625 78.257812 154.460938 79.015625 C 157.5 79.796875 160.386719 80.957031 163.066406 82.4375 C 163.140625 82.480469 163.1875 82.558594 163.1875 82.640625 Z M 162.722656 121.65625 L 162.722656 82.777344 C 160.105469 81.34375 157.296875 80.222656 154.34375 79.464844 C 151.441406 78.71875 148.394531 78.320312 145.253906 78.320312 C 135.195312 78.320312 126.089844 82.394531 119.496094 88.988281 C 112.90625 95.578125 108.828125 104.683594 108.828125 114.742188 C 108.828125 118.574219 109.421875 122.269531 110.519531 125.738281 C 111.652344 129.324219 113.328125 132.667969 115.445312 135.679688 L 115.472656 135.703125 C 120.355469 140.394531 127.574219 141.765625 135.355469 140.136719 C 143.164062 138.5 151.527344 133.835938 158.660156 126.460938 L 158.792969 126.324219 C 159.507812 125.578125 160.199219 124.8125 160.859375 124.027344 C 161.511719 123.25 162.132812 122.460938 162.722656 121.65625 Z M 162.722656 121.65625 " fill-opacity="1" fill-rule="nonzero"/><path fill="#c1121f" d="M 163.1875 82.640625 L 163.1875 136.386719 C 163.1875 136.460938 163.152344 136.527344 163.097656 136.570312 C 157.699219 141.375 151.882812 144.769531 145.929688 146.613281 C 140.03125 148.445312 134 148.75 128.121094 147.402344 C 128.097656 147.398438 128.074219 147.390625 128.058594 147.378906 C 122.105469 144.238281 117.113281 139.511719 113.648438 133.769531 C 110.296875 128.214844 108.367188 121.703125 108.367188 114.742188 C 108.367188 104.554688 112.496094 95.335938 119.167969 88.660156 C 125.84375 81.984375 135.066406 77.855469 145.253906 77.855469 C 148.429688 77.855469 151.515625 78.257812 154.460938 79.015625 C 157.5 79.796875 160.386719 80.957031 163.066406 82.4375 C 163.140625 82.480469 163.183594 82.558594 163.1875 82.640625 Z M 162.722656 136.285156 L 162.722656 82.777344 C 160.105469 81.34375 157.296875 80.222656 154.347656 79.464844 C 151.441406 78.71875 148.394531 78.320312 145.253906 78.320312 C 135.195312 78.320312 126.089844 82.394531 119.496094 88.988281 C 112.90625 95.578125 108.828125 104.683594 108.828125 114.742188 C 108.828125 121.617188 110.734375 128.042969 114.042969 133.527344 C 117.464844 139.195312 122.382812 143.855469 128.253906 146.960938 C 134.042969 148.28125 139.980469 147.976562 145.796875 146.171875 C 151.65625 144.355469 157.390625 141.015625 162.722656 136.285156 Z M 162.722656 136.285156 " fill-opacity="1" fill-rule="nonzero"/><path fill="#c1121f" d="M 163.1875 82.640625 L 163.1875 143.898438 C 163.1875 143.984375 163.140625 144.058594 163.070312 144.097656 C 159.832031 146.339844 156.382812 148.152344 152.761719 149.425781 C 149.320312 150.632812 145.726562 151.351562 142.015625 151.480469 C 142.007812 151.484375 141.996094 151.484375 141.988281 151.480469 C 132.527344 150.652344 124.089844 146.25 118.03125 139.632812 C 112.03125 133.070312 108.367188 124.335938 108.367188 114.742188 C 108.367188 104.554688 112.496094 95.335938 119.171875 88.660156 C 125.84375 81.984375 135.066406 77.855469 145.253906 77.855469 C 148.429688 77.855469 151.515625 78.257812 154.460938 79.015625 C 157.5 79.796875 160.386719 80.957031 163.066406 82.4375 C 163.140625 82.480469 163.1875 82.558594 163.1875 82.640625 Z M 162.722656 143.777344 L 162.722656 82.777344 C 160.105469 81.34375 157.296875 80.222656 154.347656 79.464844 C 151.441406 78.71875 148.394531 78.320312 145.253906 78.320312 C 135.195312 78.320312 126.089844 82.394531 119.496094 88.988281 C 112.90625 95.578125 108.828125 104.683594 108.828125 114.742188 C 108.828125 124.214844 112.445312 132.84375 118.375 139.320312 C 124.351562 145.851562 132.679688 150.199219 142.019531 151.019531 C 145.675781 150.886719 149.21875 150.179688 152.609375 148.988281 C 156.160156 147.742188 159.542969 145.96875 162.722656 143.777344 Z M 162.722656 143.777344 " fill-opacity="1" fill-rule="nonzero"/><path fill="#c1121f" d="M 134.792969 88 C 132.976562 86.546875 130.582031 86.152344 128.089844 86.703125 C 125.566406 87.261719 122.941406 88.789062 120.699219 91.167969 C 118.4375 93.570312 116.972656 96.332031 116.472656 98.875 C 115.988281 101.332031 116.414062 103.578125 117.902344 105.066406 C 119.363281 106.527344 121.960938 106.851562 124.695312 106.351562 C 127.625 105.820312 130.703125 104.347656 132.742188 102.308594 C 133.066406 101.984375 133.371094 101.644531 133.652344 101.289062 C 135.234375 99.316406 136.328125 96.78125 136.667969 94.378906 C 137.003906 92.003906 136.597656 89.765625 135.179688 88.347656 C 135.050781 88.222656 134.925781 88.105469 134.792969 88 Z M 127.992188 86.253906 C 130.617188 85.671875 133.148438 86.09375 135.082031 87.640625 C 135.238281 87.765625 135.378906 87.890625 135.503906 88.019531 C 137.035156 89.550781 137.480469 91.929688 137.125 94.441406 C 136.777344 96.921875 135.644531 99.539062 134.015625 101.578125 C 133.710938 101.957031 133.394531 102.308594 133.070312 102.632812 C 130.96875 104.738281 127.796875 106.257812 124.777344 106.808594 C 121.902344 107.332031 119.152344 106.972656 117.578125 105.394531 C 115.96875 103.789062 115.503906 101.390625 116.015625 98.785156 C 116.53125 96.160156 118.039062 93.316406 120.363281 90.851562 C 122.671875 88.402344 125.378906 86.832031 127.992188 86.253906 Z M 127.992188 86.253906 " fill-opacity="1" fill-rule="nonzero"/><path fill="#c1121f" d="M 162.988281 145.664062 C 163.117188 145.683594 163.203125 145.800781 163.183594 145.925781 C 163.164062 146.054688 163.046875 146.140625 162.917969 146.121094 C 160.496094 145.746094 157.484375 144.347656 153.386719 140.488281 C 149.316406 136.652344 144.164062 130.375 137.421875 120.222656 C 133.558594 114.402344 130.828125 109.464844 128.875 105.277344 C 126.921875 101.089844 125.742188 97.660156 124.976562 94.859375 C 124.90625 94.597656 124.816406 94.277344 124.730469 93.960938 C 123.796875 90.601562 123.152344 88.28125 124.460938 84.328125 C 124.5 84.207031 124.632812 84.140625 124.753906 84.179688 C 124.875 84.21875 124.941406 84.351562 124.902344 84.472656 C 123.632812 88.296875 124.265625 90.558594 125.175781 93.835938 C 125.25 94.105469 125.324219 94.378906 125.421875 94.738281 C 126.179688 97.515625 127.351562 100.921875 129.292969 105.082031 C 131.238281 109.246094 133.957031 114.164062 137.808594 119.96875 C 144.527344 130.085938 149.65625 136.339844 153.703125 140.152344 C 157.71875 143.9375 160.648438 145.300781 162.988281 145.664062 Z M 162.988281 145.664062 " fill-opacity="1" fill-rule="nonzero"/><path fill="#c1121f" d="M 163.121094 132.164062 C 163.210938 132.257812 163.207031 132.402344 163.117188 132.492188 C 163.023438 132.582031 162.878906 132.578125 162.789062 132.488281 C 155.199219 124.691406 143.6875 113.171875 134.339844 103.996094 C 126.179688 95.988281 119.679688 89.769531 118.890625 89.378906 C 118.777344 89.324219 118.730469 89.183594 118.785156 89.070312 C 118.84375 88.957031 118.980469 88.910156 119.09375 88.964844 C 119.933594 89.378906 126.476562 95.628906 134.664062 103.664062 C 144.015625 112.847656 155.527344 124.367188 163.121094 132.164062 Z M 163.121094 132.164062 " fill-opacity="1" fill-rule="nonzero"/><path fill="#c1121f" d="M 155.101562 149.851562 C 155.222656 149.882812 155.296875 150.007812 155.265625 150.132812 C 155.230469 150.257812 155.105469 150.332031 154.984375 150.296875 C 152.007812 149.507812 147.925781 147.765625 143.578125 143.773438 C 139.242188 139.792969 134.640625 133.566406 130.609375 123.808594 C 128.15625 117.871094 126.488281 112.640625 125.558594 107.910156 C 124.625 103.171875 124.4375 98.933594 124.949219 94.996094 C 125.277344 92.464844 125.859375 90.046875 126.761719 87.714844 C 127.664062 85.382812 128.890625 83.140625 130.507812 80.957031 C 130.582031 80.855469 130.726562 80.835938 130.828125 80.910156 C 130.933594 80.984375 130.953125 81.132812 130.878906 81.234375 C 129.285156 83.378906 128.078125 85.585938 127.191406 87.882812 C 126.304688 90.179688 125.730469 92.5625 125.40625 95.054688 C 124.902344 98.941406 125.089844 103.128906 126.011719 107.820312 C 126.9375 112.523438 128.597656 117.726562 131.035156 123.632812 C 135.039062 133.320312 139.597656 139.488281 143.890625 143.433594 C 148.171875 147.363281 152.183594 149.074219 155.101562 149.851562 Z M 155.101562 149.851562 " fill-opacity="1" fill-rule="nonzero"/><path fill="#c1121f" d="M 163.105469 117.363281 C 163.203125 117.445312 163.214844 117.59375 163.132812 117.691406 C 163.046875 117.789062 162.902344 117.800781 162.804688 117.71875 C 161.753906 116.828125 160.636719 115.898438 159.441406 114.933594 C 158.242188 113.964844 156.964844 112.957031 155.613281 111.910156 C 150.554688 107.980469 145.078125 104.382812 139.742188 101.464844 C 134.566406 98.640625 129.519531 96.457031 125.117188 95.25 C 122.984375 94.664062 120.941406 94.304688 119.132812 94.210938 C 117.417969 94.125 115.921875 94.277344 114.773438 94.710938 C 114.65625 94.753906 114.523438 94.691406 114.476562 94.574219 C 114.433594 94.453125 114.496094 94.320312 114.613281 94.277344 C 115.820312 93.824219 117.378906 93.660156 119.15625 93.75 C 120.996094 93.84375 123.074219 94.210938 125.238281 94.804688 C 129.679688 96.023438 134.757812 98.21875 139.964844 101.0625 C 145.324219 103.988281 150.820312 107.601562 155.898438 111.542969 C 157.257812 112.597656 158.535156 113.609375 159.730469 114.574219 C 160.933594 115.546875 162.054688 116.472656 163.105469 117.363281 Z M 163.105469 117.363281 " fill-opacity="1" fill-rule="nonzero"/><path fill="#c1121f" d="M 163.074219 105.476562 C 163.183594 105.542969 163.21875 105.683594 163.152344 105.792969 C 163.085938 105.902344 162.945312 105.9375 162.835938 105.875 C 161.054688 104.808594 159.226562 103.820312 157.402344 102.914062 C 155.445312 101.945312 153.492188 101.070312 151.59375 100.296875 C 145.601562 97.863281 138.699219 95.683594 131.757812 95.222656 C 124.835938 94.757812 117.871094 96 111.730469 100.398438 C 111.625 100.472656 111.480469 100.449219 111.40625 100.34375 C 111.332031 100.238281 111.355469 100.09375 111.460938 100.019531 C 117.699219 95.550781 124.765625 94.289062 131.789062 94.757812 C 138.789062 95.226562 145.738281 97.421875 151.769531 99.871094 C 153.671875 100.640625 155.636719 101.519531 157.605469 102.5 C 159.441406 103.410156 161.277344 104.402344 163.074219 105.476562 Z M 163.074219 105.476562 " fill-opacity="1" fill-rule="nonzero"/><path fill="#c1121f" d="M 163.03125 96.1875 C 163.152344 96.226562 163.214844 96.359375 163.171875 96.480469 C 163.128906 96.601562 163 96.664062 162.878906 96.621094 L 162.808594 96.597656 C 156.46875 94.394531 145.121094 92.035156 134.292969 93.285156 C 123.5 94.527344 113.226562 99.355469 108.976562 111.515625 L 108.957031 111.566406 C 108.917969 111.6875 108.785156 111.75 108.664062 111.707031 C 108.542969 111.664062 108.480469 111.535156 108.523438 111.414062 L 108.539062 111.363281 C 112.863281 98.996094 123.289062 94.085938 134.238281 92.824219 C 145.148438 91.566406 156.578125 93.941406 162.960938 96.160156 Z M 163.03125 96.1875 " fill-opacity="1" fill-rule="nonzero"/><path fill="#c1121f" d="M 163.023438 89.445312 C 163.144531 89.484375 163.210938 89.613281 163.175781 89.738281 C 163.136719 89.859375 163.007812 89.925781 162.882812 89.886719 C 161.921875 89.582031 160.945312 89.300781 159.957031 89.035156 C 158.988281 88.777344 157.996094 88.535156 157.003906 88.300781 C 152.765625 87.292969 146.355469 87.816406 140.289062 89.15625 C 133.871094 90.578125 127.855469 92.910156 125.222656 95.320312 C 124.660156 95.835938 124.054688 96.359375 123.40625 96.925781 C 117.90625 101.707031 109.355469 109.140625 109.941406 123.726562 C 109.945312 123.855469 109.847656 123.964844 109.71875 123.96875 C 109.589844 123.972656 109.484375 123.875 109.480469 123.746094 C 108.882812 108.9375 117.535156 101.414062 123.101562 96.574219 C 123.761719 96.003906 124.375 95.46875 124.910156 94.980469 C 127.605469 92.515625 133.703125 90.140625 140.1875 88.707031 C 146.316406 87.351562 152.804688 86.828125 157.109375 87.847656 C 158.089844 88.082031 159.078125 88.324219 160.074219 88.589844 C 161.058594 88.851562 162.042969 89.132812 163.023438 89.445312 Z M 163.023438 89.445312 " fill-opacity="1" fill-rule="nonzero"/><path fill="#c1121f" d="M 163.023438 84.082031 C 163.144531 84.121094 163.210938 84.25 163.175781 84.371094 C 163.136719 84.496094 163.007812 84.5625 162.886719 84.527344 C 156.683594 82.609375 149.535156 82.535156 142.6875 84.46875 C 136.367188 86.25 130.308594 89.742188 125.5 95.074219 C 119.460938 101.765625 115.464844 109.171875 113.816406 116.425781 C 112.199219 123.542969 112.851562 130.519531 116.0625 136.535156 C 116.121094 136.648438 116.078125 136.785156 115.964844 136.847656 C 115.855469 136.90625 115.714844 136.863281 115.652344 136.75 C 112.386719 130.632812 111.726562 123.550781 113.367188 116.324219 C 115.03125 108.992188 119.066406 101.515625 125.15625 94.765625 C 130.027344 89.367188 136.164062 85.828125 142.5625 84.019531 C 149.492188 82.066406 156.734375 82.140625 163.023438 84.082031 Z M 163.023438 84.082031 " fill-opacity="1" fill-rule="nonzero"/><path fill="#c1121f" d="M 154.554688 79.050781 C 154.683594 79.046875 154.785156 79.152344 154.789062 79.277344 C 154.789062 79.40625 154.6875 79.511719 154.558594 79.511719 C 150.980469 79.539062 146.101562 79.964844 140.910156 82.128906 C 135.71875 84.289062 130.210938 88.183594 125.367188 95.160156 C 125.023438 95.65625 124.691406 96.167969 124.371094 96.691406 C 120.101562 103.710938 117.726562 113.703125 118.472656 123.367188 C 119.214844 133.015625 123.070312 142.335938 131.265625 148.023438 C 131.71875 148.34375 132.1875 148.644531 132.664062 148.933594 C 132.773438 149 132.808594 149.144531 132.742188 149.253906 C 132.675781 149.363281 132.53125 149.398438 132.421875 149.332031 C 131.933594 149.03125 131.457031 148.722656 131 148.40625 C 122.679688 142.625 118.761719 133.179688 118.011719 123.402344 C 117.257812 113.640625 119.660156 103.546875 123.976562 96.453125 C 124.304688 95.910156 124.644531 95.390625 124.988281 94.894531 C 129.890625 87.835938 135.46875 83.890625 140.730469 81.699219 C 145.992188 79.511719 150.933594 79.078125 154.554688 79.050781 Z M 154.554688 79.050781 " fill-opacity="1" fill-rule="nonzero"/><path fill="#c1121f" d="M 141.089844 78.101562 C 141.203125 78.046875 141.34375 78.097656 141.398438 78.210938 C 141.453125 78.328125 141.402344 78.464844 141.285156 78.519531 C 137.703125 80.222656 134.511719 82.492188 131.828125 85.304688 C 129.21875 88.035156 127.089844 91.277344 125.542969 95.007812 C 123.414062 100.132812 122.351562 106.082031 122.476562 112.378906 C 122.597656 118.457031 123.824219 124.859375 126.265625 131.160156 C 134.941406 153.574219 145.175781 151.175781 145.207031 151.167969 C 145.332031 151.144531 145.453125 151.222656 145.480469 151.347656 C 145.503906 151.472656 145.425781 151.597656 145.300781 151.621094 C 145.269531 151.628906 134.65625 154.113281 125.832031 131.328125 C 123.375 124.972656 122.136719 118.515625 122.015625 112.386719 C 121.890625 106.023438 122.964844 100.011719 125.113281 94.832031 C 126.683594 91.046875 128.84375 87.757812 131.492188 84.984375 C 134.214844 82.132812 137.453125 79.828125 141.089844 78.101562 Z M 141.089844 78.101562 " fill-opacity="1" fill-rule="nonzero"/><path fill="#000000" d="M 106.113281 59.484375 L 162.6875 59.484375 L 162.6875 60.226562 L 106.113281 60.226562 Z M 106.113281 59.484375 " fill-opacity="1" fill-rule="nonzero"/><path fill="#000000" d="M 64.683594 71.742188 L 103.945312 71.742188 C 104.152344 71.742188 104.316406 71.90625 104.316406 72.113281 L 104.316406 82.0625 C 104.316406 82.265625 104.152344 82.433594 103.945312 82.433594 L 64.683594 82.433594 C 64.476562 82.433594 64.3125 82.265625 64.3125 82.0625 L 64.3125 72.113281 C 64.3125 71.90625 64.476562 71.742188 64.683594 71.742188 Z M 103.574219 72.484375 L 65.054688 72.484375 L 65.054688 81.691406 L 103.574219 81.691406 Z M 103.574219 72.484375 " fill-opacity="1" fill-rule="nonzero"/><path fill="#000000" d="M 64.59375 72.472656 C 64.394531 72.421875 64.273438 72.21875 64.324219 72.023438 C 64.371094 71.824219 64.574219 71.703125 64.773438 71.753906 L 104.035156 81.703125 C 104.234375 81.753906 104.355469 81.953125 104.304688 82.152344 C 104.257812 82.351562 104.054688 82.46875 103.855469 82.421875 Z M 64.59375 72.472656 " fill-opacity="1" fill-rule="nonzero"/><path fill="#c1121f" d="M 125.488281 80.648438 C 125.328125 78.792969 125.277344 78.601562 123.691406 78.519531 C 125.285156 78.382812 125.328125 78.246094 125.488281 76.390625 C 125.652344 78.246094 125.761719 78.402344 127.285156 78.519531 C 125.757812 78.621094 125.652344 78.792969 125.488281 80.648438 Z M 125.488281 80.648438 " fill-opacity="1" fill-rule="evenodd"/><path fill="#c1121f" d="M 120.324219 83.640625 C 120.253906 82.824219 120.230469 82.742188 119.535156 82.703125 C 120.234375 82.644531 120.253906 82.582031 120.324219 81.765625 C 120.394531 82.582031 120.445312 82.652344 121.113281 82.703125 C 120.441406 82.75 120.394531 82.824219 120.324219 83.640625 Z M 120.324219 83.640625 " fill-opacity="1" fill-rule="evenodd"/><path fill="#c1121f" d="M 112.425781 90.671875 C 112.355469 89.855469 112.332031 89.773438 111.636719 89.734375 C 112.335938 89.675781 112.355469 89.613281 112.425781 88.800781 C 112.496094 89.613281 112.546875 89.683594 113.214844 89.734375 C 112.542969 89.78125 112.496094 89.855469 112.425781 90.671875 Z M 112.425781 90.671875 " fill-opacity="1" fill-rule="evenodd"/><path fill="#c1121f" d="M 156.5625 76.601562 C 156.488281 75.785156 156.46875 75.703125 155.773438 75.664062 C 156.472656 75.605469 156.488281 75.542969 156.5625 74.726562 C 156.632812 75.542969 156.679688 75.613281 157.347656 75.664062 C 156.679688 75.710938 156.632812 75.785156 156.5625 76.601562 Z M 156.5625 76.601562 " fill-opacity="1" fill-rule="evenodd"/><path fill="#000000" d="M 70.507812 58.328125 C 70.359375 58.695312 70.15625 59.011719 69.898438 59.273438 C 69.65625 59.519531 69.363281 59.714844 69.023438 59.855469 C 69.363281 59.996094 69.65625 60.1875 69.898438 60.433594 C 70.15625 60.695312 70.359375 61.011719 70.507812 61.382812 C 70.660156 61.011719 70.859375 60.695312 71.121094 60.433594 C 71.363281 60.1875 71.652344 59.996094 71.992188 59.855469 C 71.652344 59.714844 71.363281 59.519531 71.121094 59.273438 C 70.859375 59.011719 70.660156 58.695312 70.507812 58.328125 Z M 69.570312 58.949219 C 69.933594 58.582031 70.164062 58.078125 70.28125 57.445312 C 70.296875 57.351562 70.367188 57.273438 70.46875 57.257812 C 70.59375 57.234375 70.714844 57.316406 70.738281 57.441406 C 70.851562 58.074219 71.085938 58.582031 71.449219 58.949219 C 71.808594 59.3125 72.300781 59.539062 72.941406 59.625 C 73.042969 59.636719 73.128906 59.71875 73.144531 59.824219 C 73.160156 59.949219 73.070312 60.066406 72.945312 60.082031 C 72.300781 60.167969 71.808594 60.398438 71.449219 60.761719 C 71.085938 61.125 70.855469 61.628906 70.738281 62.261719 C 70.722656 62.355469 70.648438 62.433594 70.550781 62.453125 C 70.425781 62.476562 70.304688 62.390625 70.28125 62.265625 C 70.164062 61.632812 69.933594 61.125 69.570312 60.761719 C 69.210938 60.398438 68.71875 60.167969 68.078125 60.082031 C 67.972656 60.070312 67.886719 59.992188 67.875 59.882812 C 67.859375 59.757812 67.949219 59.640625 68.074219 59.625 C 68.714844 59.542969 69.210938 59.3125 69.570312 58.949219 Z M 69.570312 58.949219 " fill-opacity="1" fill-rule="nonzero"/><path fill="#000000" d="M 70.277344 62.226562 C 70.277344 62.097656 70.382812 61.992188 70.507812 61.992188 C 70.636719 61.992188 70.742188 62.097656 70.742188 62.226562 L 70.742188 64.917969 C 70.742188 65.042969 70.636719 65.148438 70.507812 65.148438 C 70.382812 65.148438 70.277344 65.042969 70.277344 64.917969 Z M 70.277344 62.226562 " fill-opacity="1" fill-rule="nonzero"/><path fill="#000000" d="M 68.136719 59.621094 C 68.265625 59.621094 68.371094 59.726562 68.371094 59.855469 C 68.371094 59.980469 68.265625 60.085938 68.136719 60.085938 L 65.445312 60.085938 C 65.320312 60.085938 65.214844 59.980469 65.214844 59.855469 C 65.214844 59.726562 65.320312 59.621094 65.445312 59.621094 Z M 68.136719 59.621094 " fill-opacity="1" fill-rule="nonzero"/><path fill="#000000" d="M 70.277344 54.792969 C 70.277344 54.664062 70.382812 54.558594 70.507812 54.558594 C 70.636719 54.558594 70.742188 54.664062 70.742188 54.792969 L 70.742188 57.484375 C 70.742188 57.613281 70.636719 57.714844 70.507812 57.714844 C 70.382812 57.714844 70.277344 57.613281 70.277344 57.484375 Z M 70.277344 54.792969 " fill-opacity="1" fill-rule="nonzero"/><path fill="#000000" d="M 75.570312 59.621094 C 75.699219 59.621094 75.804688 59.726562 75.804688 59.855469 C 75.804688 59.980469 75.699219 60.085938 75.570312 60.085938 L 72.878906 60.085938 C 72.75 60.085938 72.648438 59.980469 72.648438 59.855469 C 72.648438 59.726562 72.753906 59.621094 72.878906 59.621094 Z M 75.570312 59.621094 " fill-opacity="1" fill-rule="nonzero"/><path fill="#000000" d="M 84.3125 58.328125 C 84.164062 58.695312 83.960938 59.011719 83.703125 59.273438 C 83.460938 59.519531 83.171875 59.714844 82.828125 59.855469 C 83.171875 59.996094 83.460938 60.1875 83.703125 60.433594 C 83.960938 60.695312 84.164062 61.011719 84.3125 61.382812 C 84.464844 61.011719 84.664062 60.695312 84.925781 60.433594 C 85.167969 60.1875 85.457031 59.996094 85.800781 59.855469 C 85.457031 59.714844 85.167969 59.519531 84.925781 59.273438 C 84.664062 59.011719 84.464844 58.695312 84.3125 58.328125 Z M 83.375 58.949219 C 83.738281 58.582031 83.96875 58.078125 84.085938 57.445312 C 84.101562 57.351562 84.175781 57.273438 84.273438 57.257812 C 84.398438 57.234375 84.519531 57.316406 84.542969 57.441406 C 84.65625 58.074219 84.890625 58.582031 85.253906 58.949219 C 85.613281 59.3125 86.105469 59.539062 86.746094 59.625 C 86.847656 59.636719 86.933594 59.71875 86.949219 59.824219 C 86.964844 59.949219 86.875 60.066406 86.75 60.082031 C 86.105469 60.167969 85.613281 60.398438 85.253906 60.761719 C 84.890625 61.125 84.660156 61.628906 84.542969 62.261719 C 84.527344 62.355469 84.453125 62.433594 84.355469 62.453125 C 84.230469 62.476562 84.109375 62.390625 84.085938 62.265625 C 83.972656 61.632812 83.738281 61.125 83.375 60.761719 C 83.015625 60.398438 82.523438 60.167969 81.882812 60.082031 C 81.78125 60.070312 81.695312 59.992188 81.679688 59.882812 C 81.664062 59.757812 81.753906 59.640625 81.878906 59.625 C 82.523438 59.542969 83.015625 59.3125 83.375 58.949219 Z M 83.375 58.949219 " fill-opacity="1" fill-rule="nonzero"/><path fill="#000000" d="M 84.082031 62.226562 C 84.082031 62.097656 84.1875 61.992188 84.3125 61.992188 C 84.441406 61.992188 84.546875 62.097656 84.546875 62.226562 L 84.546875 64.917969 C 84.546875 65.042969 84.441406 65.148438 84.3125 65.148438 C 84.1875 65.148438 84.082031 65.042969 84.082031 64.917969 Z M 84.082031 62.226562 " fill-opacity="1" fill-rule="nonzero"/><path fill="#000000" d="M 81.945312 59.621094 C 82.070312 59.621094 82.175781 59.726562 82.175781 59.855469 C 82.175781 59.980469 82.070312 60.085938 81.945312 60.085938 L 79.253906 60.085938 C 79.125 60.085938 79.019531 59.980469 79.019531 59.855469 C 79.019531 59.726562 79.125 59.621094 79.253906 59.621094 Z M 81.945312 59.621094 " fill-opacity="1" fill-rule="nonzero"/><path fill="#000000" d="M 84.082031 54.792969 C 84.082031 54.664062 84.1875 54.558594 84.3125 54.558594 C 84.441406 54.558594 84.546875 54.664062 84.546875 54.792969 L 84.546875 57.484375 C 84.546875 57.613281 84.441406 57.714844 84.3125 57.714844 C 84.1875 57.714844 84.082031 57.613281 84.082031 57.484375 Z M 84.082031 54.792969 " fill-opacity="1" fill-rule="nonzero"/><path fill="#000000" d="M 89.375 59.621094 C 89.503906 59.621094 89.609375 59.726562 89.609375 59.855469 C 89.609375 59.980469 89.503906 60.085938 89.375 60.085938 L 86.683594 60.085938 C 86.558594 60.085938 86.453125 59.980469 86.453125 59.855469 C 86.453125 59.726562 86.558594 59.621094 86.683594 59.621094 Z M 89.375 59.621094 " fill-opacity="1" fill-rule="nonzero"/><path fill="#000000" d="M 98.121094 58.328125 C 97.96875 58.695312 97.769531 59.011719 97.507812 59.273438 C 97.265625 59.519531 96.976562 59.714844 96.632812 59.855469 C 96.976562 59.996094 97.265625 60.1875 97.507812 60.433594 C 97.769531 60.695312 97.96875 61.011719 98.121094 61.382812 C 98.269531 61.011719 98.472656 60.695312 98.730469 60.433594 C 98.972656 60.1875 99.265625 59.996094 99.605469 59.855469 C 99.265625 59.714844 98.972656 59.519531 98.730469 59.273438 C 98.472656 59.011719 98.269531 58.695312 98.121094 58.328125 Z M 97.179688 58.949219 C 97.542969 58.582031 97.773438 58.078125 97.890625 57.445312 C 97.90625 57.351562 97.980469 57.273438 98.078125 57.257812 C 98.203125 57.234375 98.324219 57.316406 98.347656 57.441406 C 98.464844 58.074219 98.695312 58.582031 99.058594 58.949219 C 99.417969 59.3125 99.910156 59.539062 100.550781 59.625 C 100.65625 59.636719 100.738281 59.71875 100.753906 59.824219 C 100.769531 59.949219 100.679688 60.066406 100.554688 60.082031 C 99.914062 60.167969 99.417969 60.398438 99.058594 60.761719 C 98.695312 61.125 98.464844 61.628906 98.347656 62.261719 C 98.332031 62.355469 98.257812 62.433594 98.160156 62.453125 C 98.035156 62.476562 97.914062 62.390625 97.890625 62.265625 C 97.777344 61.632812 97.542969 61.125 97.179688 60.761719 C 96.820312 60.398438 96.328125 60.167969 95.6875 60.082031 C 95.585938 60.070312 95.5 59.992188 95.484375 59.882812 C 95.46875 59.757812 95.558594 59.640625 95.683594 59.625 C 96.328125 59.542969 96.820312 59.3125 97.179688 58.949219 Z M 97.179688 58.949219 " fill-opacity="1" fill-rule="nonzero"/><path fill="#000000" d="M 97.886719 62.226562 C 97.886719 62.097656 97.992188 61.992188 98.121094 61.992188 C 98.246094 61.992188 98.351562 62.097656 98.351562 62.226562 L 98.351562 64.917969 C 98.351562 65.042969 98.246094 65.148438 98.121094 65.148438 C 97.992188 65.148438 97.886719 65.042969 97.886719 64.917969 Z M 97.886719 62.226562 " fill-opacity="1" fill-rule="nonzero"/><path fill="#000000" d="M 95.75 59.621094 C 95.878906 59.621094 95.980469 59.726562 95.980469 59.855469 C 95.980469 59.980469 95.875 60.085938 95.75 60.085938 L 93.058594 60.085938 C 92.929688 60.085938 92.824219 59.980469 92.824219 59.855469 C 92.824219 59.726562 92.929688 59.621094 93.058594 59.621094 Z M 95.75 59.621094 " fill-opacity="1" fill-rule="nonzero"/><path fill="#000000" d="M 97.886719 54.792969 C 97.886719 54.664062 97.992188 54.558594 98.121094 54.558594 C 98.246094 54.558594 98.351562 54.664062 98.351562 54.792969 L 98.351562 57.484375 C 98.351562 57.613281 98.246094 57.714844 98.121094 57.714844 C 97.992188 57.714844 97.886719 57.613281 97.886719 57.484375 Z M 97.886719 54.792969 " fill-opacity="1" fill-rule="nonzero"/><path fill="#000000" d="M 103.183594 59.621094 C 103.308594 59.621094 103.414062 59.726562 103.414062 59.855469 C 103.414062 59.980469 103.308594 60.085938 103.183594 60.085938 L 100.492188 60.085938 C 100.363281 60.085938 100.257812 59.980469 100.257812 59.855469 C 100.257812 59.726562 100.363281 59.621094 100.492188 59.621094 Z M 103.183594 59.621094 " fill-opacity="1" fill-rule="nonzero"/><path fill="#000000" d="M 107.578125 170.128906 L 107.578125 155.601562 L 106.378906 155.601562 L 106.378906 170.128906 Z M 107.578125 170.128906 " fill-opacity="1" fill-rule="nonzero"/><path fill="#000000" d="M 108.777344 170.128906 L 108.777344 155.601562 L 108.027344 155.601562 L 108.027344 170.128906 Z M 108.777344 170.128906 " fill-opacity="1" fill-rule="nonzero"/><path fill="#000000" d="M 160.308594 170.128906 L 160.308594 155.601562 L 159.109375 155.601562 L 159.109375 170.128906 Z M 160.308594 170.128906 " fill-opacity="1" fill-rule="nonzero"/><path fill="#000000" d="M 161.140625 170.128906 L 161.140625 155.601562 L 160.671875 155.601562 L 160.671875 170.128906 Z M 161.140625 170.128906 " fill-opacity="1" fill-rule="nonzero"/><path fill="#000000" d="M 161.800781 170.128906 L 161.800781 155.601562 L 161.507812 155.601562 L 161.507812 170.128906 Z M 161.800781 170.128906 " fill-opacity="1" fill-rule="nonzero"/><path fill="#000000" d="M 109.675781 170.128906 L 110.339844 170.128906 L 110.339844 155.601562 L 109.675781 155.601562 Z M 109.675781 170.128906 " fill-opacity="1" fill-rule="nonzero"/><path fill="#000000" d="M 110.898438 170.128906 L 112.433594 170.128906 L 112.433594 155.601562 L 110.898438 155.601562 Z M 110.898438 170.128906 " fill-opacity="1" fill-rule="nonzero"/><path fill="#000000" d="M 112.921875 170.128906 L 113.410156 170.128906 L 113.410156 155.601562 L 112.921875 155.601562 Z M 112.921875 170.128906 " fill-opacity="1" fill-rule="nonzero"/><path fill="#000000" d="M 113.859375 170.128906 L 114.195312 170.128906 L 114.195312 155.601562 L 113.859375 155.601562 Z M 113.859375 170.128906 " fill-opacity="1" fill-rule="nonzero"/><path fill="#000000" d="M 118.144531 170.128906 L 118.375 170.128906 L 118.375 155.601562 L 118.144531 155.601562 Z M 118.144531 170.128906 " fill-opacity="1" fill-rule="nonzero"/><path fill="#000000" d="M 118.761719 170.128906 L 119.179688 170.128906 L 119.179688 155.601562 L 118.761719 155.601562 Z M 118.761719 170.128906 " fill-opacity="1" fill-rule="nonzero"/><path fill="#000000" d="M 115.148438 170.128906 L 115.675781 170.128906 L 115.675781 155.601562 L 115.148438 155.601562 Z M 115.148438 170.128906 " fill-opacity="1" fill-rule="nonzero"/><path fill="#000000" d="M 116.695312 170.128906 L 117.875 170.128906 L 117.875 155.601562 L 116.695312 155.601562 Z M 116.695312 170.128906 " fill-opacity="1" fill-rule="nonzero"/><path fill="#000000" d="M 119.863281 170.128906 L 120.78125 170.128906 L 120.78125 155.601562 L 119.863281 155.601562 Z M 119.863281 170.128906 " fill-opacity="1" fill-rule="nonzero"/><path fill="#000000" d="M 121.554688 170.128906 L 123.683594 170.128906 L 123.683594 155.601562 L 121.554688 155.601562 Z M 121.554688 170.128906 " fill-opacity="1" fill-rule="nonzero"/><path fill="#000000" d="M 124.359375 170.128906 L 125.035156 170.128906 L 125.035156 155.601562 L 124.359375 155.601562 Z M 124.359375 170.128906 " fill-opacity="1" fill-rule="nonzero"/><path fill="#000000" d="M 125.65625 170.128906 L 126.121094 170.128906 L 126.121094 155.601562 L 125.65625 155.601562 Z M 125.65625 170.128906 " fill-opacity="1" fill-rule="nonzero"/><path fill="#000000" d="M 129.777344 170.128906 L 129.953125 170.128906 L 129.953125 155.601562 L 129.777344 155.601562 Z M 129.777344 170.128906 " fill-opacity="1" fill-rule="nonzero"/><path fill="#000000" d="M 130.242188 170.128906 L 130.558594 170.128906 L 130.558594 155.601562 L 130.242188 155.601562 Z M 130.242188 170.128906 " fill-opacity="1" fill-rule="nonzero"/><path fill="#000000" d="M 126.472656 170.128906 L 127.199219 170.128906 L 127.199219 155.601562 L 126.472656 155.601562 Z M 126.472656 170.128906 " fill-opacity="1" fill-rule="nonzero"/><path fill="#000000" d="M 152.863281 170.128906 L 154.992188 170.128906 L 154.992188 155.601562 L 152.863281 155.601562 Z M 152.863281 170.128906 " fill-opacity="1" fill-rule="nonzero"/><path fill="#000000" d="M 155.667969 170.128906 L 156.34375 170.128906 L 156.34375 155.601562 L 155.667969 155.601562 Z M 155.667969 170.128906 " fill-opacity="1" fill-rule="nonzero"/><path fill="#000000" d="M 156.964844 170.128906 L 157.429688 170.128906 L 157.429688 155.601562 L 156.964844 155.601562 Z M 156.964844 170.128906 " fill-opacity="1" fill-rule="nonzero"/><path fill="#000000" d="M 157.78125 170.128906 L 158.507812 170.128906 L 158.507812 155.601562 L 157.78125 155.601562 Z M 157.78125 170.128906 " fill-opacity="1" fill-rule="nonzero"/><path fill="#000000" d="M 128.164062 170.128906 L 129.050781 170.128906 L 129.050781 155.601562 L 128.164062 155.601562 Z M 128.164062 170.128906 " fill-opacity="1" fill-rule="nonzero"/><path fill="#000000" d="M 133.242188 170.128906 L 133.574219 170.128906 L 133.574219 155.601562 L 133.242188 155.601562 Z M 133.242188 170.128906 " fill-opacity="1" fill-rule="nonzero"/><path fill="#000000" d="M 137.078125 170.128906 L 137.304688 170.128906 L 137.304688 155.601562 L 137.078125 155.601562 Z M 137.078125 170.128906 " fill-opacity="1" fill-rule="nonzero"/><path fill="#000000" d="M 138.5 170.128906 L 139.03125 170.128906 L 139.03125 155.601562 L 138.5 155.601562 Z M 138.5 170.128906 " fill-opacity="1" fill-rule="nonzero"/><path fill="#000000" d="M 134.132812 170.128906 L 134.738281 170.128906 L 134.738281 155.601562 L 134.132812 155.601562 Z M 134.132812 170.128906 " fill-opacity="1" fill-rule="nonzero"/><path fill="#000000" d="M 131.148438 170.128906 L 132.855469 170.128906 L 132.855469 155.601562 L 131.148438 155.601562 Z M 131.148438 170.128906 " fill-opacity="1" fill-rule="nonzero"/><path fill="#000000" d="M 135.726562 170.128906 L 136.601562 170.128906 L 136.601562 155.601562 L 135.726562 155.601562 Z M 135.726562 170.128906 " fill-opacity="1" fill-rule="nonzero"/><path fill="#000000" d="M 139.527344 170.128906 L 140.503906 170.128906 L 140.503906 155.601562 L 139.527344 155.601562 Z M 139.527344 170.128906 " fill-opacity="1" fill-rule="nonzero"/><path fill="#000000" d="M 141.402344 170.128906 L 142.074219 170.128906 L 142.074219 155.601562 L 141.402344 155.601562 Z M 141.402344 170.128906 " fill-opacity="1" fill-rule="nonzero"/><path fill="#000000" d="M 147.355469 170.128906 L 147.605469 170.128906 L 147.605469 155.601562 L 147.355469 155.601562 Z M 147.355469 170.128906 " fill-opacity="1" fill-rule="nonzero"/><path fill="#000000" d="M 148.363281 170.128906 L 148.816406 170.128906 L 148.816406 155.601562 L 148.363281 155.601562 Z M 148.363281 170.128906 " fill-opacity="1" fill-rule="nonzero"/><path fill="#000000" d="M 149.339844 170.128906 L 149.589844 170.128906 L 149.589844 155.601562 L 149.339844 155.601562 Z M 149.339844 170.128906 " fill-opacity="1" fill-rule="nonzero"/><path fill="#000000" d="M 150.34375 170.128906 L 150.535156 170.128906 L 150.535156 155.601562 L 150.34375 155.601562 Z M 150.34375 170.128906 " fill-opacity="1" fill-rule="nonzero"/><path fill="#000000" d="M 151.097656 170.128906 L 152.148438 170.128906 L 152.148438 155.601562 L 151.097656 155.601562 Z M 151.097656 170.128906 " fill-opacity="1" fill-rule="nonzero"/><path fill="#000000" d="M 142.582031 170.128906 L 143.628906 170.128906 L 143.628906 155.601562 L 142.582031 155.601562 Z M 142.582031 170.128906 " fill-opacity="1" fill-rule="nonzero"/><path fill="#000000" d="M 145.023438 170.128906 L 146.304688 170.128906 L 146.304688 155.601562 L 145.023438 155.601562 Z M 145.023438 170.128906 " fill-opacity="1" fill-rule="nonzero"/><path fill="#000000" d="M 64.273438 161.667969 L 73.34375 161.667969 C 73.546875 161.667969 73.714844 161.835938 73.714844 162.039062 L 73.714844 170.128906 C 73.714844 170.332031 73.546875 170.5 73.34375 170.5 L 64.273438 170.5 C 64.070312 170.5 63.902344 170.332031 63.902344 170.128906 L 63.902344 162.039062 C 63.902344 161.835938 64.070312 161.667969 64.273438 161.667969 Z M 72.972656 162.410156 L 64.644531 162.410156 L 64.644531 169.757812 L 72.972656 169.757812 Z M 72.972656 162.410156 " fill-opacity="1" fill-rule="nonzero"/><path fill="#000000" d="M 64.027344 162.316406 C 63.875 162.179688 63.863281 161.945312 64 161.792969 C 64.132812 161.640625 64.367188 161.628906 64.519531 161.765625 L 73.589844 169.851562 C 73.742188 169.988281 73.757812 170.222656 73.621094 170.375 C 73.484375 170.527344 73.25 170.539062 73.097656 170.402344 Z M 64.027344 162.316406 " fill-opacity="1" fill-rule="nonzero"/><path fill="#000000" d="M 74.613281 161.667969 L 83.679688 161.667969 C 83.886719 161.667969 84.050781 161.835938 84.050781 162.039062 L 84.050781 170.128906 C 84.050781 170.332031 83.886719 170.5 83.679688 170.5 L 74.613281 170.5 C 74.40625 170.5 74.242188 170.332031 74.242188 170.128906 L 74.242188 162.039062 C 74.242188 161.835938 74.40625 161.667969 74.613281 161.667969 Z M 83.308594 162.410156 L 74.984375 162.410156 L 74.984375 169.757812 L 83.308594 169.757812 Z M 83.308594 162.410156 " fill-opacity="1" fill-rule="nonzero"/><path fill="#000000" d="M 84.949219 161.667969 L 94.015625 161.667969 C 94.222656 161.667969 94.386719 161.835938 94.386719 162.039062 L 94.386719 170.128906 C 94.386719 170.332031 94.222656 170.5 94.015625 170.5 L 84.949219 170.5 C 84.742188 170.5 84.578125 170.332031 84.578125 170.128906 L 84.578125 162.039062 C 84.578125 161.835938 84.742188 161.667969 84.949219 161.667969 Z M 93.644531 162.410156 L 85.320312 162.410156 L 85.320312 169.757812 L 93.644531 169.757812 Z M 93.644531 162.410156 " fill-opacity="1" fill-rule="nonzero"/><path fill="#000000" d="M 95.285156 161.667969 L 104.355469 161.667969 C 104.558594 161.667969 104.726562 161.835938 104.726562 162.039062 L 104.726562 170.128906 C 104.726562 170.332031 104.558594 170.5 104.355469 170.5 L 95.285156 170.5 C 95.082031 170.5 94.914062 170.332031 94.914062 170.128906 L 94.914062 162.039062 C 94.914062 161.835938 95.082031 161.667969 95.285156 161.667969 Z M 103.984375 162.410156 L 95.65625 162.410156 L 95.65625 169.757812 L 103.984375 169.757812 Z M 103.984375 162.410156 " fill-opacity="1" fill-rule="nonzero"/><path fill="#000000" d="M 79.144531 161.667969 C 80.492188 161.667969 81.710938 162.160156 82.597656 162.949219 C 83.496094 163.75 84.050781 164.855469 84.050781 166.085938 C 84.050781 167.3125 83.496094 168.417969 82.597656 169.21875 C 81.710938 170.007812 80.492188 170.5 79.144531 170.5 C 77.800781 170.5 76.578125 170.007812 75.695312 169.21875 C 74.796875 168.417969 74.242188 167.3125 74.242188 166.085938 C 74.242188 164.855469 74.796875 163.75 75.695312 162.949219 C 76.578125 162.160156 77.800781 161.667969 79.144531 161.667969 Z M 82.105469 163.5 C 81.351562 162.828125 80.304688 162.410156 79.144531 162.410156 C 77.988281 162.410156 76.941406 162.828125 76.1875 163.5 C 75.441406 164.164062 74.984375 165.078125 74.984375 166.085938 C 74.984375 167.089844 75.441406 168.003906 76.1875 168.667969 C 76.941406 169.339844 77.988281 169.757812 79.144531 169.757812 C 80.304688 169.757812 81.351562 169.339844 82.105469 168.667969 C 82.847656 168.003906 83.308594 167.089844 83.308594 166.085938 C 83.308594 165.078125 82.847656 164.164062 82.105469 163.5 Z M 82.105469 163.5 " fill-opacity="1" fill-rule="nonzero"/><path fill="#000000" d="M 89.484375 161.667969 C 90.828125 161.667969 92.050781 162.160156 92.933594 162.949219 C 93.832031 163.75 94.386719 164.855469 94.386719 166.085938 C 94.386719 167.3125 93.832031 168.417969 92.933594 169.21875 C 92.050781 170.007812 90.828125 170.5 89.484375 170.5 C 88.136719 170.5 86.914062 170.007812 86.03125 169.21875 C 85.132812 168.417969 84.578125 167.3125 84.578125 166.085938 C 84.578125 164.855469 85.132812 163.75 86.03125 162.949219 C 86.914062 162.160156 88.136719 161.667969 89.484375 161.667969 Z M 92.441406 163.5 C 91.6875 162.828125 90.640625 162.410156 89.484375 162.410156 C 88.324219 162.410156 87.277344 162.828125 86.523438 163.5 C 85.777344 164.164062 85.320312 165.078125 85.320312 166.085938 C 85.320312 167.089844 85.777344 168.003906 86.523438 168.667969 C 87.277344 169.339844 88.324219 169.757812 89.484375 169.757812 C 90.640625 169.757812 91.6875 169.339844 92.441406 168.667969 C 93.1875 168.003906 93.644531 167.089844 93.644531 166.085938 C 93.644531 165.078125 93.1875 164.164062 92.441406 163.5 Z M 92.441406 163.5 " fill-opacity="1" fill-rule="nonzero"/><path fill="#000000" d="M 86.03125 163.5 C 85.878906 163.367188 85.863281 163.132812 86 162.980469 C 86.136719 162.824219 86.371094 162.8125 86.523438 162.949219 L 92.933594 168.667969 C 93.089844 168.800781 93.101562 169.035156 92.964844 169.191406 C 92.828125 169.34375 92.59375 169.355469 92.441406 169.21875 Z M 86.03125 163.5 " fill-opacity="1" fill-rule="nonzero"/><path fill="#000000" d="M 92.429688 162.960938 C 92.582031 162.824219 92.816406 162.839844 92.953125 162.992188 C 93.085938 163.144531 93.074219 163.378906 92.921875 163.515625 L 86.535156 169.207031 C 86.382812 169.34375 86.148438 169.328125 86.011719 169.175781 C 85.878906 169.023438 85.890625 168.789062 86.042969 168.652344 Z M 92.429688 162.960938 " fill-opacity="1" fill-rule="nonzero"/><path fill="#000000" d="M 95.039062 162.316406 C 94.886719 162.179688 94.871094 161.945312 95.007812 161.792969 C 95.144531 161.640625 95.378906 161.628906 95.53125 161.765625 L 104.601562 169.851562 C 104.753906 169.988281 104.765625 170.222656 104.628906 170.375 C 104.496094 170.527344 104.261719 170.539062 104.109375 170.402344 Z M 95.039062 162.316406 " fill-opacity="1" fill-rule="nonzero"/><path fill="#000000" d="M 104.109375 161.765625 C 104.261719 161.628906 104.496094 161.640625 104.628906 161.792969 C 104.765625 161.945312 104.753906 162.179688 104.601562 162.316406 L 95.53125 170.402344 C 95.378906 170.539062 95.144531 170.527344 95.007812 170.375 C 94.871094 170.222656 94.886719 169.988281 95.039062 169.851562 Z M 104.109375 161.765625 " fill-opacity="1" fill-rule="nonzero"/><path fill="#000000" d="M 111.710938 70.296875 L 113.664062 70.296875 L 109.496094 66.128906 L 113.664062 61.957031 L 110.550781 61.957031 L 106.378906 66.128906 L 107.359375 67.105469 L 110.550781 70.296875 Z M 111.710938 70.296875 " fill-opacity="1" fill-rule="evenodd"/><path fill="#000000" d="M 118.539062 70.296875 L 120.492188 70.296875 L 116.324219 66.128906 L 120.492188 61.957031 L 117.378906 61.957031 L 113.207031 66.128906 L 114.1875 67.105469 L 117.378906 70.296875 Z M 118.539062 70.296875 " fill-opacity="1" fill-rule="evenodd"/><path fill="#000000" d="M 125.367188 70.296875 L 127.320312 70.296875 L 123.152344 66.128906 L 127.320312 61.957031 L 124.207031 61.957031 L 120.035156 66.128906 L 121.015625 67.105469 L 124.207031 70.296875 Z M 125.367188 70.296875 " fill-opacity="1" fill-rule="evenodd"/><path fill="#000000" d="M 132.195312 70.296875 L 134.148438 70.296875 L 129.980469 66.128906 L 134.148438 61.957031 L 131.035156 61.957031 L 126.863281 66.128906 L 127.84375 67.105469 L 131.035156 70.296875 Z M 132.195312 70.296875 " fill-opacity="1" fill-rule="evenodd"/><path fill="#000000" d="M 139.023438 70.296875 L 140.976562 70.296875 L 136.808594 66.128906 L 140.976562 61.957031 L 137.863281 61.957031 L 133.691406 66.128906 L 134.671875 67.105469 L 137.863281 70.296875 Z M 139.023438 70.296875 " fill-opacity="1" fill-rule="evenodd"/><path fill="#000000" d="M 145.851562 70.296875 L 147.804688 70.296875 L 143.636719 66.128906 L 147.804688 61.957031 L 144.691406 61.957031 L 140.519531 66.128906 L 141.5 67.105469 L 144.691406 70.296875 Z M 145.851562 70.296875 " fill-opacity="1" fill-rule="evenodd"/><path fill="#000000" d="M 152.679688 70.296875 L 154.632812 70.296875 L 150.460938 66.128906 L 154.632812 61.957031 L 151.519531 61.957031 L 147.347656 66.128906 L 148.328125 67.105469 L 151.519531 70.296875 Z M 152.679688 70.296875 " fill-opacity="1" fill-rule="evenodd"/><path fill="#000000" d="M 159.507812 70.296875 L 161.460938 70.296875 L 157.292969 66.128906 L 161.460938 61.957031 L 158.347656 61.957031 L 154.175781 66.128906 L 155.15625 67.105469 L 158.347656 70.296875 Z M 159.507812 70.296875 " fill-opacity="1" fill-rule="evenodd"/><path fill="#c1121f" d="M 110.785156 77.992188 C 110.714844 77.179688 110.691406 77.09375 109.996094 77.058594 C 110.695312 77 110.714844 76.9375 110.785156 76.121094 C 110.855469 76.9375 110.90625 77.007812 111.574219 77.058594 C 110.902344 77.101562 110.855469 77.179688 110.785156 77.992188 Z M 110.785156 77.992188 " fill-opacity="1" fill-rule="evenodd"/><path fill="#c1121f" d="M 108.667969 100.695312 C 108.597656 99.878906 108.574219 99.796875 107.878906 99.761719 C 108.578125 99.699219 108.597656 99.640625 108.667969 98.824219 C 108.738281 99.640625 108.789062 99.710938 109.457031 99.761719 C 108.785156 99.804688 108.738281 99.878906 108.667969 100.695312 Z M 108.667969 100.695312 " fill-opacity="1" fill-rule="evenodd"/><path fill="#c1121f" d="M 110.167969 137.265625 C 110.09375 136.449219 110.074219 136.367188 109.378906 136.328125 C 110.078125 136.269531 110.09375 136.210938 110.167969 135.394531 C 110.238281 136.210938 110.289062 136.277344 110.957031 136.328125 C 110.285156 136.375 110.238281 136.449219 110.167969 137.265625 Z M 110.167969 137.265625 " fill-opacity="1" fill-rule="evenodd"/><path fill="#c1121f" d="M 124.125 149.828125 C 124.054688 149.011719 124.03125 148.929688 123.335938 148.890625 C 124.035156 148.832031 124.054688 148.773438 124.125 147.957031 C 124.195312 148.769531 124.246094 148.839844 124.914062 148.890625 C 124.242188 148.9375 124.195312 149.011719 124.125 149.828125 Z M 124.125 149.828125 " fill-opacity="1" fill-rule="evenodd"/><path fill="#c1121f" d="M 116.148438 143.644531 C 116.078125 142.832031 116.054688 142.746094 115.359375 142.710938 C 116.058594 142.652344 116.078125 142.589844 116.148438 141.773438 C 116.21875 142.589844 116.269531 142.660156 116.9375 142.710938 C 116.265625 142.753906 116.21875 142.832031 116.148438 143.644531 Z M 116.148438 143.644531 " fill-opacity="1" fill-rule="evenodd"/><path fill="#c1121f" d="M 111.5625 149.03125 C 111.492188 148.214844 111.46875 148.132812 110.773438 148.09375 C 111.472656 148.035156 111.492188 147.972656 111.5625 147.15625 C 111.632812 147.972656 111.683594 148.042969 112.351562 148.09375 C 111.679688 148.140625 111.632812 148.214844 111.5625 149.03125 Z M 111.5625 149.03125 " fill-opacity="1" fill-rule="evenodd"/><path fill="#c1121f" d="M 116.148438 151.621094 C 115.988281 149.761719 115.9375 149.574219 114.351562 149.488281 C 115.945312 149.355469 115.988281 149.214844 116.148438 147.359375 C 116.3125 149.214844 116.421875 149.375 117.945312 149.488281 C 116.417969 149.59375 116.3125 149.761719 116.148438 151.621094 Z M 116.148438 151.621094 " fill-opacity="1" fill-rule="evenodd"/></svg>