<svg xmlns="http://www.w3.org/2000/svg" xmlns:xlink="http://www.w3.org/1999/xlink" width="300" zoomAndPan="magnify" viewBox="0 0 224.87999 225" height="300" preserveAspectRatio="xMidYMid meet" version="1.0"><defs><clipPath id="c7439534cc"><path d="M 50.019531 58.453125 L 175 58.453125 L 175 177.640625 L 50.019531 177.640625 Z M 50.019531 58.453125 " clip-rule="nonzero"/></clipPath></defs><g clip-path="url(#c7439534cc)"><path fill="#c1121f" d="M 119.058594 170.914062 C 119.804688 170.109375 120.542969 169.355469 121.242188 168.5625 C 122.207031 167.46875 123.171875 166.375 124.082031 165.234375 C 124.839844 164.285156 125.539062 163.289062 126.222656 162.285156 C 126.976562 161.183594 127.695312 160.054688 128.410156 158.921875 C 128.851562 158.21875 129.246094 157.484375 129.679688 156.777344 C 130.566406 155.324219 131.417969 153.84375 132.375 152.4375 C 133.28125 151.113281 134.328125 149.894531 135.722656 149.023438 C 136.667969 148.433594 137.679688 148.054688 138.789062 147.945312 C 140.542969 147.769531 142.28125 147.898438 144.015625 148.148438 C 145.296875 148.335938 146.582031 148.535156 147.851562 148.800781 C 149.222656 149.089844 150.523438 149.582031 151.769531 150.25 C 153.214844 151.019531 154.503906 151.996094 155.703125 153.085938 C 156.601562 153.902344 157.414062 154.816406 158.253906 155.695312 C 159.859375 157.375 161.617188 158.871094 163.65625 160 C 164.773438 160.621094 165.945312 161.132812 167.175781 161.507812 C 167.761719 161.683594 168.332031 161.890625 168.914062 162.078125 C 169.179688 162.167969 169.402344 162.300781 169.429688 162.609375 C 169.460938 162.90625 169.292969 163.097656 169.070312 163.269531 C 168.089844 164.023438 166.949219 164.1875 165.777344 164.105469 C 164.085938 163.984375 162.636719 163.265625 161.3125 162.210938 C 159.949219 161.121094 158.835938 159.816406 157.839844 158.40625 C 156.839844 157 155.855469 155.578125 154.644531 154.34375 C 153.519531 153.199219 152.269531 152.203125 150.824219 151.457031 C 149.316406 150.679688 147.703125 150.359375 146.050781 150.113281 C 144.628906 149.902344 143.203125 149.882812 141.792969 150.023438 C 140.488281 150.152344 139.1875 150.457031 138.023438 151.132812 C 136.996094 151.730469 136.09375 152.480469 135.308594 153.371094 C 134.042969 154.8125 133.03125 156.425781 132.136719 158.117188 C 131.417969 159.480469 130.695312 160.84375 129.996094 162.214844 C 129.484375 163.226562 129.023438 164.269531 128.507812 165.28125 C 127.796875 166.671875 127.074219 168.054688 126.332031 169.429688 C 125.859375 170.304688 125.363281 171.164062 124.847656 172.015625 C 123.992188 173.421875 123.050781 174.769531 121.769531 175.832031 C 120.503906 176.886719 119.023438 177.347656 117.394531 177.042969 C 116.332031 176.847656 115.367188 176.351562 114.457031 175.757812 C 112.558594 174.519531 110.921875 172.976562 109.292969 171.429688 C 107.96875 170.171875 106.691406 168.867188 105.328125 167.65625 C 104.015625 166.488281 102.628906 165.402344 101.257812 164.296875 C 99.863281 163.175781 98.308594 162.304688 96.6875 161.550781 C 96.0625 161.261719 95.410156 161.039062 94.769531 160.777344 C 93.8125 160.390625 92.855469 160.007812 91.90625 159.601562 C 91.648438 159.492188 91.414062 159.320312 91.195312 159.148438 C 90.496094 158.59375 90.429688 157.882812 91.042969 157.210938 C 91.613281 156.585938 92.199219 155.96875 92.824219 155.398438 C 94.601562 153.765625 96.261719 152.03125 97.691406 150.082031 C 98.625 148.808594 99.53125 147.515625 100.496094 146.269531 C 101.199219 145.355469 101.941406 144.46875 102.726562 143.632812 C 104.296875 141.957031 105.925781 140.339844 107.503906 138.671875 C 108.503906 137.613281 109.460938 136.503906 110.4375 135.421875 C 111.304688 134.460938 112.171875 133.5 113.042969 132.539062 C 113.792969 131.710938 114.535156 130.878906 115.300781 130.066406 C 115.976562 129.34375 116.6875 128.648438 117.375 127.933594 C 117.867188 127.425781 118.339844 126.898438 118.839844 126.394531 C 119.765625 125.460938 120.699219 124.535156 121.636719 123.613281 C 122.316406 122.945312 122.980469 122.261719 123.699219 121.636719 C 124.628906 120.828125 125.59375 120.050781 126.570312 119.296875 C 127.765625 118.371094 129.109375 117.6875 130.550781 117.242188 C 132.46875 116.648438 134.386719 116.542969 136.199219 117.632812 C 137.089844 118.164062 137.75 118.929688 138.25 119.828125 C 139.011719 121.195312 139.386719 122.6875 139.621094 124.222656 C 139.820312 125.546875 140.003906 126.875 140.269531 128.1875 C 140.457031 129.101562 140.765625 129.992188 141.355469 130.746094 C 141.925781 131.476562 142.664062 131.800781 143.601562 131.660156 C 144.367188 131.542969 145.035156 131.183594 145.667969 130.792969 C 147.601562 129.59375 149.472656 128.304688 151.246094 126.875 C 152.601562 125.78125 153.984375 124.710938 155.289062 123.558594 C 157.113281 121.941406 158.847656 120.230469 160.476562 118.410156 C 162.128906 116.558594 163.660156 114.621094 165.03125 112.5625 C 166.003906 111.09375 166.898438 109.566406 167.734375 108.011719 C 168.699219 106.210938 169.574219 104.355469 170.457031 102.507812 C 170.894531 101.585938 171.253906 100.625 171.554688 99.632812 C 171.503906 99.703125 171.4375 99.769531 171.402344 99.847656 C 170.894531 100.929688 170.421875 102.03125 169.882812 103.097656 C 169.203125 104.433594 168.492188 105.753906 167.75 107.058594 C 167.078125 108.238281 166.390625 109.417969 165.632812 110.539062 C 164.8125 111.75 163.953125 112.933594 163.023438 114.054688 C 161.910156 115.394531 160.75 116.699219 159.523438 117.9375 C 158.113281 119.363281 156.605469 120.699219 154.957031 121.851562 C 153.945312 122.5625 152.929688 123.269531 151.878906 123.917969 C 150.804688 124.582031 149.65625 125.128906 148.402344 125.34375 C 147.75 125.453125 147.058594 125.480469 146.402344 125.40625 C 145.28125 125.277344 144.484375 124.585938 143.867188 123.675781 C 143.289062 122.824219 142.960938 121.863281 142.65625 120.894531 C 142.148438 119.265625 141.558594 117.667969 140.714844 116.179688 C 139.941406 114.820312 138.957031 113.636719 137.632812 112.789062 C 137.160156 112.484375 136.628906 112.246094 136.097656 112.054688 C 134.164062 111.363281 132.210938 111.503906 130.277344 112.046875 C 129.476562 112.269531 128.707031 112.59375 127.921875 112.875 C 127.847656 112.898438 127.773438 112.917969 127.625 112.960938 C 127.730469 112.566406 128.015625 112.390625 128.246094 112.214844 C 129.628906 111.160156 131.136719 110.328125 132.8125 109.84375 C 134.320312 109.402344 135.859375 109.328125 137.378906 109.789062 C 138.675781 110.179688 139.816406 110.875 140.835938 111.773438 C 142.132812 112.921875 143.15625 114.3125 144.257812 115.636719 C 144.726562 116.199219 145.203125 116.761719 145.742188 117.246094 C 146.613281 118.027344 147.664062 118.347656 148.84375 118.21875 C 150.296875 118.066406 151.558594 117.410156 152.773438 116.667969 C 154.109375 115.851562 155.316406 114.851562 156.441406 113.765625 C 157.636719 112.613281 158.773438 111.390625 159.753906 110.046875 C 160.722656 108.71875 161.671875 107.378906 162.550781 105.992188 C 163.289062 104.828125 163.945312 103.613281 164.570312 102.382812 C 165.335938 100.886719 166.089844 99.375 166.738281 97.824219 C 167.4375 96.140625 168.144531 94.441406 168.261719 92.582031 C 168.28125 92.300781 168.269531 92.015625 168.261719 91.730469 C 168.21875 90.113281 166.839844 89.339844 165.492188 89.601562 C 164.324219 89.828125 163.226562 90.269531 162.246094 90.9375 C 160.46875 92.144531 158.730469 93.410156 156.960938 94.632812 C 155.121094 95.90625 153.214844 97.066406 151.054688 97.726562 C 150.359375 97.9375 149.632812 98.054688 148.910156 98.160156 C 148.210938 98.261719 147.5 98.300781 146.789062 98.34375 C 146.039062 98.390625 145.285156 98.40625 144.535156 98.4375 C 143.820312 98.46875 143.207031 98.703125 142.875 99.382812 C 142.421875 100.304688 141.582031 100.65625 140.679688 100.851562 C 139.925781 101.011719 139.148438 101.078125 138.378906 101.117188 C 136.289062 101.222656 134.203125 101.382812 132.148438 101.785156 C 130.621094 102.085938 129.109375 102.511719 127.699219 103.207031 C 126.753906 103.671875 125.792969 104.117188 124.871094 104.621094 C 123.40625 105.421875 122.046875 106.386719 120.78125 107.46875 C 118.746094 109.210938 116.75 110.996094 114.75 112.777344 C 113.035156 114.300781 111.359375 115.863281 109.628906 117.363281 C 108.328125 118.492188 106.960938 119.546875 105.628906 120.644531 C 104.515625 121.558594 103.414062 122.488281 102.304688 123.402344 C 101.773438 123.839844 101.234375 124.269531 100.683594 124.6875 C 100.445312 124.867188 100.199219 125.058594 99.78125 125.023438 C 99.765625 124.816406 99.695312 124.597656 99.738281 124.402344 C 99.835938 123.945312 99.941406 123.484375 100.125 123.058594 C 100.753906 121.601562 101.558594 120.234375 102.492188 118.949219 C 103.640625 117.367188 104.964844 115.9375 106.449219 114.660156 C 108.25 113.109375 110.058594 111.574219 111.859375 110.027344 C 113.382812 108.71875 114.890625 107.390625 116.421875 106.09375 C 117.753906 104.96875 119.121094 103.886719 120.457031 102.765625 C 121.902344 101.554688 123.359375 100.351562 124.757812 99.089844 C 125.976562 97.984375 127.023438 96.707031 128 95.386719 C 129.296875 93.632812 130.753906 92.027344 132.425781 90.625 C 134.152344 89.179688 135.910156 87.777344 137.632812 86.332031 C 139.722656 84.574219 141.8125 82.808594 143.859375 81 C 145.238281 79.78125 146.59375 78.523438 147.871094 77.195312 C 149.074219 75.941406 150.183594 74.589844 151.296875 73.246094 C 152.292969 72.046875 153.226562 70.796875 154.210938 69.585938 C 154.449219 69.292969 154.746094 69.027344 155.066406 68.824219 C 155.589844 68.488281 155.972656 68.65625 156.089844 69.265625 C 156.175781 69.699219 156.175781 70.152344 156.214844 70.597656 C 156.222656 70.675781 156.246094 70.75 156.285156 70.953125 C 156.367188 70.738281 156.417969 70.644531 156.441406 70.539062 C 156.742188 69.042969 156.992188 67.539062 156.78125 66 C 156.746094 65.742188 156.691406 65.476562 156.601562 65.234375 C 156.410156 64.707031 155.855469 64.347656 155.25 64.835938 C 154.472656 65.46875 153.960938 66.292969 153.449219 67.117188 C 152.261719 69.027344 151.082031 70.949219 149.679688 72.710938 C 148.3125 74.425781 146.820312 76.019531 145.160156 77.464844 C 143.433594 78.972656 141.652344 80.410156 139.78125 81.726562 C 137.875 83.066406 135.96875 84.414062 134.019531 85.6875 C 132.289062 86.820312 130.492188 87.851562 128.730469 88.9375 C 126.652344 90.214844 124.46875 91.285156 122.214844 92.214844 C 121.390625 92.554688 120.535156 92.820312 119.683594 93.09375 C 117.667969 93.742188 115.605469 94.199219 113.503906 94.460938 C 113.320312 94.480469 113.144531 94.53125 112.964844 94.558594 C 112.558594 94.617188 112.335938 94.816406 112.242188 95.246094 C 111.921875 96.691406 111.214844 97.976562 110.484375 99.246094 C 109.710938 100.585938 108.824219 101.851562 107.789062 103 C 106.90625 103.972656 106.011719 104.953125 105.019531 105.8125 C 103.21875 107.359375 101.324219 108.796875 99.503906 110.320312 C 97.617188 111.902344 95.890625 113.644531 94.503906 115.691406 C 93.667969 116.917969 92.964844 118.214844 92.390625 119.589844 C 91.625 121.429688 90.980469 123.308594 90.5 125.246094 C 90.109375 126.820312 89.71875 128.398438 89.316406 129.972656 C 88.707031 132.351562 88.136719 134.746094 87.460938 137.109375 C 87.042969 138.570312 86.488281 139.996094 85.742188 141.332031 C 84.988281 142.675781 84.050781 143.871094 82.78125 144.765625 C 81.800781 145.453125 80.695312 145.839844 79.503906 145.96875 C 77.921875 146.144531 76.433594 145.792969 75.007812 145.144531 C 73.773438 144.578125 72.566406 143.949219 71.34375 143.355469 C 70.734375 143.058594 70.082031 142.894531 69.402344 142.945312 C 68.257812 143.027344 67.515625 143.710938 66.972656 144.65625 C 66.300781 145.828125 66.066406 147.128906 65.898438 148.4375 C 65.726562 149.746094 65.6875 151.074219 65.511719 152.382812 C 65.382812 153.328125 65.0625 154.238281 64.421875 154.988281 C 63.769531 155.75 62.929688 156.191406 61.949219 156.292969 C 61.152344 156.375 60.4375 156.03125 59.804688 155.566406 C 59.007812 154.980469 58.414062 154.203125 57.890625 153.378906 C 56.6875 151.488281 55.75 149.460938 54.964844 147.367188 C 54.289062 145.5625 53.75 143.714844 53.351562 141.820312 C 52.988281 140.101562 52.800781 138.371094 52.734375 136.621094 C 52.710938 136.011719 52.613281 135.402344 52.632812 134.796875 C 52.722656 132.417969 52.816406 130.039062 53.222656 127.691406 C 53.554688 125.792969 53.894531 123.890625 54.363281 122.023438 C 54.921875 119.800781 55.570312 117.597656 56.414062 115.460938 C 56.925781 114.15625 57.382812 112.832031 57.9375 111.542969 C 58.777344 109.589844 59.632812 107.632812 60.703125 105.789062 C 61.34375 104.683594 62.019531 103.597656 62.722656 102.53125 C 63.21875 101.785156 63.859375 101.15625 64.589844 100.625 C 64.621094 100.601562 64.65625 100.578125 64.691406 100.558594 C 64.984375 100.417969 65.289062 100.230469 65.617188 100.394531 C 65.972656 100.570312 65.957031 100.945312 65.917969 101.257812 C 65.800781 102.183594 65.664062 103.109375 65.496094 104.027344 C 65.324219 104.96875 65.105469 105.898438 64.917969 106.835938 C 64.421875 109.285156 64.015625 111.75 63.636719 114.222656 C 63.242188 116.804688 63 119.390625 63.082031 122 C 63.109375 122.828125 63.199219 123.664062 63.355469 124.480469 C 63.515625 125.320312 63.847656 126.105469 64.421875 126.777344 C 64.851562 127.277344 65.386719 127.621094 65.988281 127.785156 C 67.953125 128.320312 69.9375 128.539062 71.953125 128.011719 C 73.339844 127.648438 74.4375 126.847656 75.390625 125.816406 C 75.421875 125.785156 75.414062 125.710938 75.429688 125.589844 C 75.15625 125.714844 74.929688 125.835938 74.6875 125.917969 C 72.1875 126.753906 69.816406 125.574219 68.789062 123.273438 C 68.179688 121.898438 68.054688 120.441406 68.035156 118.976562 C 68.003906 116.835938 68.203125 114.710938 68.652344 112.617188 C 68.9375 111.308594 69.183594 109.988281 69.527344 108.695312 C 70.050781 106.753906 70.742188 104.871094 71.675781 103.078125 C 72.449219 101.597656 73.339844 100.195312 74.417969 98.917969 C 75.320312 97.847656 76.351562 96.902344 77.503906 96.101562 C 79.132812 94.964844 80.914062 94.144531 82.816406 93.59375 C 84.21875 93.1875 85.621094 92.785156 87.027344 92.394531 C 89 91.84375 90.960938 91.261719 92.863281 90.503906 C 94.976562 89.660156 97.015625 88.65625 98.933594 87.4375 C 100.832031 86.230469 102.671875 84.929688 104.53125 83.664062 C 106.570312 82.273438 108.574219 80.820312 110.71875 79.582031 C 111.875 78.914062 113.042969 78.265625 114.273438 77.738281 C 115.6875 77.128906 117.105469 76.539062 118.511719 75.914062 C 120.050781 75.230469 121.578125 74.527344 123.101562 73.816406 C 124.148438 73.328125 125.195312 72.84375 126.214844 72.304688 C 127.917969 71.40625 129.609375 70.480469 131.128906 69.28125 C 131.925781 68.648438 132.640625 67.941406 133.183594 67.058594 C 133.929688 65.839844 133.71875 64.328125 132.574219 63.460938 C 132.128906 63.121094 131.609375 62.855469 131.09375 62.636719 C 129.84375 62.109375 128.511719 61.96875 127.179688 61.792969 C 124.203125 61.398438 121.214844 61.46875 118.230469 61.425781 C 117.277344 61.410156 116.308594 61.433594 115.371094 61.589844 C 113.929688 61.824219 112.546875 62.269531 111.238281 62.960938 C 109.804688 63.71875 108.535156 64.691406 107.390625 65.8125 C 106.4375 66.75 105.539062 67.753906 104.722656 68.808594 C 103.417969 70.492188 102.214844 72.25 100.949219 73.960938 C 99.570312 75.828125 98.066406 77.578125 96.210938 78.988281 C 94.695312 80.140625 93.0625 81.082031 91.1875 81.5 C 90.304688 81.695312 89.382812 81.851562 88.480469 81.839844 C 86.675781 81.816406 84.960938 81.375 83.363281 80.484375 C 81.433594 79.410156 79.871094 77.941406 78.511719 76.226562 C 77.332031 74.742188 76.359375 73.128906 75.40625 71.496094 C 74.621094 70.148438 73.835938 68.796875 72.667969 67.714844 C 71.640625 66.761719 70.484375 66.363281 69.148438 66.953125 C 67.675781 67.601562 66.578125 68.609375 66.136719 70.246094 C 65.851562 71.3125 65.828125 72.378906 65.929688 73.453125 C 66.015625 74.332031 66.339844 75.113281 67.144531 75.605469 C 67.261719 75.679688 67.363281 75.789062 67.445312 75.902344 C 67.757812 76.308594 67.691406 76.578125 67.203125 76.71875 C 66.558594 76.898438 65.902344 77.03125 65.246094 77.175781 C 63.664062 77.535156 62.078125 77.890625 60.492188 78.242188 C 58.300781 78.726562 56.097656 79.144531 53.84375 78.878906 C 53.125 78.792969 52.402344 78.59375 51.722656 78.332031 C 50.632812 77.910156 50.226562 76.949219 50.082031 75.875 C 50.023438 75.4375 50.050781 74.976562 50.125 74.539062 C 50.367188 73.113281 50.714844 71.710938 51.285156 70.375 C 51.933594 68.851562 52.808594 67.460938 53.945312 66.253906 C 54.832031 65.308594 55.71875 64.359375 56.671875 63.488281 C 57.839844 62.417969 59.105469 61.457031 60.527344 60.734375 C 61.554688 60.210938 62.59375 59.683594 63.671875 59.28125 C 65.320312 58.667969 67.023438 58.457031 68.757812 58.953125 C 69.714844 59.226562 70.53125 59.757812 71.25 60.425781 C 72.613281 61.6875 73.570312 63.238281 74.320312 64.917969 C 74.992188 66.417969 75.613281 67.941406 76.25 69.457031 C 77.089844 71.460938 78.011719 73.425781 79.246094 75.21875 C 80.675781 77.289062 82.414062 79.035156 84.710938 80.121094 C 86.378906 80.910156 88.15625 81.195312 90 80.972656 C 91.46875 80.800781 92.847656 80.304688 94.125 79.589844 C 95.394531 78.875 96.550781 77.988281 97.59375 76.945312 C 98.558594 75.988281 99.460938 74.984375 100.25 73.878906 C 100.972656 72.875 101.644531 71.839844 102.367188 70.835938 C 103.300781 69.535156 104.234375 68.234375 105.214844 66.972656 C 105.808594 66.207031 106.46875 65.488281 107.144531 64.789062 C 108.21875 63.679688 109.414062 62.726562 110.757812 61.945312 C 112.164062 61.128906 113.667969 60.613281 115.257812 60.339844 C 116.648438 60.101562 118.050781 60.125 119.453125 60.183594 C 120.144531 60.210938 120.835938 60.246094 121.527344 60.269531 C 122.765625 60.316406 124.011719 60.304688 125.242188 60.414062 C 126.921875 60.566406 128.605469 60.726562 130.253906 61.035156 C 131.648438 61.296875 133 61.761719 134.144531 62.679688 C 135.449219 63.726562 135.859375 65.324219 135.132812 66.832031 C 134.796875 67.53125 134.328125 68.152344 133.777344 68.695312 C 132.464844 69.988281 130.957031 71.011719 129.335938 71.867188 C 127.746094 72.710938 126.152344 73.558594 124.527344 74.339844 C 122.71875 75.210938 120.882812 76.015625 119.046875 76.832031 C 117.640625 77.453125 116.210938 78.03125 114.804688 78.65625 C 113.007812 79.457031 111.242188 80.320312 109.582031 81.378906 C 107.816406 82.5 106.058594 83.621094 104.304688 84.757812 C 102.652344 85.824219 101.039062 86.949219 99.359375 87.976562 C 98.0625 88.765625 96.707031 89.457031 95.355469 90.15625 C 93.953125 90.882812 92.496094 91.496094 91.003906 92.03125 C 89.554688 92.550781 88.117188 93.113281 86.675781 93.648438 C 84.804688 94.34375 82.976562 95.128906 81.328125 96.265625 C 79.585938 97.472656 78.164062 98.96875 77.167969 100.867188 C 76.527344 102.085938 76.03125 103.347656 75.964844 104.730469 C 75.933594 105.332031 75.992188 105.953125 76.113281 106.542969 C 76.277344 107.363281 76.972656 107.863281 77.882812 107.773438 C 78.703125 107.695312 79.414062 107.320312 80.0625 106.882812 C 81.597656 105.851562 83.078125 104.746094 84.59375 103.691406 C 85.609375 102.988281 86.625 102.273438 87.6875 101.644531 C 89.34375 100.660156 91.027344 99.726562 92.722656 98.8125 C 93.738281 98.265625 94.796875 97.796875 95.835938 97.289062 C 97.257812 96.597656 98.671875 95.894531 100.101562 95.21875 C 101.164062 94.714844 102.234375 94.214844 103.316406 93.757812 C 104.625 93.203125 105.933594 92.652344 107.273438 92.183594 C 108.382812 91.796875 109.523438 91.523438 110.722656 91.488281 C 111.320312 91.46875 111.914062 91.257812 112.496094 91.101562 C 113.867188 90.726562 115.234375 90.335938 116.597656 89.945312 C 118.273438 89.460938 119.949219 88.980469 121.621094 88.480469 C 122.496094 88.21875 123.371094 87.945312 124.226562 87.628906 C 125.667969 87.089844 127.113281 86.558594 128.527344 85.945312 C 130.234375 85.199219 131.921875 84.40625 133.589844 83.574219 C 134.914062 82.917969 136.21875 82.214844 137.488281 81.457031 C 139.246094 80.40625 140.949219 79.273438 142.59375 78.046875 C 144.140625 76.890625 145.597656 75.636719 146.914062 74.222656 C 148.074219 72.972656 149.121094 71.628906 150.042969 70.191406 C 151.277344 68.269531 152.230469 66.214844 153.125 64.121094 C 153.621094 62.949219 154.222656 61.816406 154.789062 60.675781 C 155.085938 60.078125 155.539062 59.605469 156.109375 59.277344 C 156.882812 58.828125 157.757812 58.921875 158.488281 59.800781 C 159.074219 60.507812 159.371094 61.359375 159.503906 62.246094 C 159.800781 64.257812 159.675781 66.257812 159.257812 68.246094 C 159.160156 68.722656 159.097656 69.210938 158.988281 69.683594 C 158.570312 71.503906 158.046875 73.296875 157.386719 75.046875 C 156.84375 76.488281 156.332031 77.945312 155.84375 79.40625 C 155.433594 80.640625 155.042969 81.878906 154.714844 83.132812 C 154.488281 84.019531 154.414062 84.941406 154.636719 85.855469 C 154.890625 86.898438 155.699219 87.554688 156.769531 87.625 C 157.710938 87.691406 158.585938 87.441406 159.429688 87.082031 C 160.117188 86.789062 160.78125 86.441406 161.457031 86.117188 C 161.933594 85.886719 162.398438 85.636719 162.882812 85.4375 C 164.523438 84.765625 166.199219 84.195312 167.980469 84.109375 C 169.589844 84.03125 171.140625 84.335938 172.496094 85.277344 C 173.296875 85.832031 173.875 86.582031 174.246094 87.484375 C 174.621094 88.394531 174.851562 89.335938 174.796875 90.332031 C 174.753906 91.183594 174.796875 92.050781 174.660156 92.886719 C 174.472656 94.023438 174.167969 95.140625 173.878906 96.257812 C 173.691406 96.984375 173.472656 97.707031 173.210938 98.410156 C 172.511719 100.3125 171.835938 102.226562 171.046875 104.097656 C 170.292969 105.886719 169.460938 107.652344 168.574219 109.382812 C 167.835938 110.828125 167.023438 112.234375 166.152344 113.605469 C 164.605469 116.035156 162.910156 118.371094 160.96875 120.503906 C 159.015625 122.644531 157.011719 124.738281 155.027344 126.851562 C 153.664062 128.304688 152.304688 129.757812 150.917969 131.191406 C 149.664062 132.492188 148.449219 133.832031 146.992188 134.914062 C 146.304688 135.429688 145.574219 135.84375 144.699219 135.980469 C 143.363281 136.191406 142.257812 135.789062 141.332031 134.835938 C 140.269531 133.75 139.71875 132.40625 139.453125 130.949219 C 139.203125 129.589844 139.050781 128.214844 138.804688 126.859375 C 138.539062 125.382812 138.320312 123.890625 137.707031 122.503906 C 137.097656 121.105469 136.148438 120.027344 134.675781 119.519531 C 133.734375 119.191406 132.742188 119.203125 131.78125 119.378906 C 130.390625 119.632812 129.117188 120.199219 127.894531 120.914062 C 126.488281 121.738281 125.183594 122.707031 123.945312 123.753906 C 122.785156 124.734375 121.675781 125.777344 120.574219 126.824219 C 119.222656 128.113281 117.890625 129.425781 116.570312 130.75 C 115.609375 131.710938 114.683594 132.710938 113.738281 133.6875 C 111.050781 136.476562 108.542969 139.4375 105.761719 142.144531 C 104.265625 143.605469 102.800781 145.105469 101.367188 146.632812 C 100.609375 147.445312 99.964844 148.363281 99.25 149.21875 C 98.082031 150.617188 96.910156 152.015625 95.714844 153.394531 C 94.785156 154.464844 93.804688 155.488281 92.871094 156.554688 C 92.679688 156.777344 92.554688 157.074219 92.457031 157.355469 C 92.300781 157.804688 92.449219 158.183594 92.808594 158.5 C 93.367188 158.992188 94.066406 159.234375 94.734375 159.511719 C 95.949219 160.019531 97.203125 160.4375 98.402344 160.980469 C 99.9375 161.675781 101.363281 162.578125 102.714844 163.585938 C 103.945312 164.507812 105.152344 165.46875 106.347656 166.4375 C 107.4375 167.316406 108.472656 168.261719 109.582031 169.109375 C 110.582031 169.871094 111.628906 170.574219 112.691406 171.238281 C 113.289062 171.613281 113.945312 171.910156 114.605469 172.15625 C 115.976562 172.660156 117.28125 172.582031 118.410156 171.527344 C 118.621094 171.335938 118.824219 171.140625 119.058594 170.914062 Z M 86.082031 131.042969 C 86.152344 130.746094 86.242188 130.453125 86.296875 130.15625 C 86.707031 127.875 87.117188 125.597656 87.507812 123.316406 C 87.832031 121.433594 88.269531 119.578125 88.726562 117.726562 C 89.292969 115.410156 90.085938 113.175781 90.914062 110.949219 C 91.167969 110.265625 91.492188 109.605469 91.734375 108.917969 C 91.964844 108.265625 92.160156 107.601562 92.308594 106.925781 C 92.441406 106.296875 92.078125 105.9375 91.445312 106.023438 C 91.226562 106.054688 91.011719 106.132812 90.804688 106.210938 C 89.984375 106.527344 89.25 106.996094 88.554688 107.53125 C 86.347656 109.234375 84.558594 111.277344 83.480469 113.878906 C 82.660156 115.867188 81.847656 117.859375 81.082031 119.867188 C 80.277344 121.96875 79.550781 124.105469 78.582031 126.140625 C 77.933594 127.5 77.226562 128.816406 76.160156 129.910156 C 75.347656 130.742188 74.417969 131.367188 73.273438 131.621094 C 72.117188 131.875 70.949219 131.964844 69.761719 131.824219 C 68.652344 131.699219 67.53125 131.621094 66.414062 131.769531 C 65.828125 131.84375 65.246094 131.929688 64.660156 131.976562 C 63.871094 132.039062 63.078125 132.117188 62.316406 131.769531 C 61.726562 131.496094 61.28125 131.066406 60.925781 130.535156 C 60.542969 129.960938 60.195312 129.363281 59.792969 128.800781 C 59.351562 128.1875 58.753906 128.214844 58.292969 128.808594 C 57.761719 129.492188 57.546875 130.308594 57.359375 131.109375 C 56.898438 133.070312 56.617188 135.0625 56.601562 137.085938 C 56.585938 139.582031 56.933594 142.027344 57.570312 144.4375 C 57.949219 145.855469 58.429688 147.234375 59.050781 148.558594 C 59.523438 149.570312 60.050781 150.5625 60.886719 151.335938 C 61.503906 151.910156 62.335938 152.226562 63.027344 151.675781 C 63.375 151.402344 63.65625 150.980469 63.832031 150.566406 C 64.09375 149.953125 64.257812 149.296875 64.421875 148.648438 C 64.664062 147.707031 64.847656 146.75 65.089844 145.804688 C 65.363281 144.734375 65.785156 143.71875 66.476562 142.847656 C 67.15625 141.980469 68.03125 141.449219 69.1875 141.457031 C 70.121094 141.460938 70.917969 141.878906 71.710938 142.273438 C 73.1875 143 74.636719 143.773438 76.253906 144.144531 C 77.699219 144.480469 79.09375 144.308594 80.394531 143.613281 C 81.707031 142.914062 82.617188 141.796875 83.324219 140.515625 C 84.140625 139.03125 84.667969 137.425781 85.082031 135.792969 C 85.46875 134.261719 85.742188 132.695312 86.082031 131.042969 Z M 168.023438 98.570312 C 167.839844 99.0625 167.628906 99.550781 167.480469 100.054688 C 167.324219 100.566406 166.960938 101.023438 167.046875 101.730469 C 167.230469 101.523438 167.363281 101.40625 167.457031 101.265625 C 168.441406 99.796875 169.296875 98.25 170.039062 96.644531 C 170.578125 95.488281 171.027344 94.289062 171.5 93.101562 C 172.007812 91.832031 172.152344 90.503906 172.039062 89.152344 C 171.960938 88.203125 171.574219 87.410156 170.847656 86.765625 C 170.074219 86.082031 169.164062 85.816406 168.167969 85.769531 C 166.257812 85.683594 164.511719 86.320312 162.878906 87.195312 C 161.113281 88.144531 159.445312 89.269531 157.714844 90.292969 C 156.542969 90.988281 155.320312 91.585938 153.949219 91.796875 C 151.675781 92.148438 150.203125 90.941406 149.96875 88.832031 C 149.882812 88.078125 149.980469 87.324219 150.203125 86.601562 C 150.695312 85.011719 151.203125 83.425781 151.71875 81.847656 C 152 80.976562 152.296875 80.113281 152.609375 79.257812 C 153.054688 78.035156 153.476562 76.808594 153.695312 75.519531 C 153.769531 75.082031 153.828125 74.632812 153.8125 74.1875 C 153.789062 73.429688 153.433594 73.226562 152.789062 73.609375 C 152.410156 73.835938 152.058594 74.125 151.742188 74.433594 C 150.738281 75.40625 149.773438 76.417969 148.773438 77.390625 C 147.105469 79.015625 145.453125 80.65625 143.738281 82.234375 C 141.488281 84.304688 139.179688 86.316406 136.90625 88.363281 C 135.53125 89.597656 134.140625 90.824219 133.085938 92.363281 C 132.660156 92.984375 132.304688 93.648438 132.242188 94.429688 C 132.167969 95.382812 132.617188 95.773438 133.53125 95.535156 C 133.707031 95.492188 133.882812 95.429688 134.042969 95.347656 C 134.835938 94.9375 135.617188 94.507812 136.417969 94.109375 C 137.734375 93.449219 139.089844 93.460938 140.425781 94.019531 C 141.269531 94.371094 142.085938 94.785156 142.90625 95.1875 C 144.40625 95.929688 145.960938 96.496094 147.628906 96.699219 C 148.644531 96.824219 149.660156 96.789062 150.660156 96.574219 C 152.257812 96.226562 153.761719 95.601562 155.140625 94.746094 C 156.691406 93.785156 158.1875 92.738281 159.675781 91.683594 C 161.019531 90.730469 162.359375 89.773438 163.851562 89.082031 C 164.847656 88.625 165.882812 88.296875 167.019531 88.316406 C 168.234375 88.332031 169.335938 89.132812 169.5625 90.476562 C 169.835938 92.109375 169.523438 93.679688 169.109375 95.234375 C 168.8125 96.332031 168.410156 97.398438 168.023438 98.570312 Z M 168.023438 98.570312 " fill-opacity="1" fill-rule="nonzero"/></g></svg>