<svg xmlns="http://www.w3.org/2000/svg" xmlns:xlink="http://www.w3.org/1999/xlink" width="300" zoomAndPan="magnify" viewBox="0 0 224.87999 225" height="300" preserveAspectRatio="xMidYMid meet" version="1.0"><defs><clipPath id="cabce7bb87"><path d="M 53.414062 53.152344 L 171.101562 53.152344 L 171.101562 171.585938 L 53.414062 171.585938 Z M 53.414062 53.152344 " clip-rule="nonzero"/></clipPath></defs><g clip-path="url(#cabce7bb87)"><path fill="#000000" d="M 170.804688 106.320312 L 170.8125 106.316406 L 170.789062 106.097656 C 170.230469 100.765625 168.933594 95.542969 166.941406 90.546875 L 166.953125 90.535156 L 166.824219 90.210938 C 164.960938 85.625 162.515625 81.308594 159.578125 77.34375 L 159.589844 77.332031 L 159.265625 76.90625 C 158.382812 75.738281 157.460938 74.597656 156.492188 73.5 C 153.796875 70.429688 150.773438 67.660156 147.492188 65.199219 L 147.523438 65.183594 L 146.785156 64.648438 C 143.148438 62.003906 139.257812 59.8125 135.148438 58.082031 C 133.503906 57.386719 131.824219 56.769531 130.117188 56.230469 C 129.984375 56.191406 129.855469 56.15625 129.722656 56.117188 L 129.824219 56.09375 L 127.53125 55.472656 C 126.296875 55.136719 125.050781 54.84375 123.792969 54.59375 C 122.308594 54.296875 120.804688 54.082031 119.292969 53.898438 C 117 53.472656 114.648438 53.246094 112.257812 53.246094 C 109.867188 53.246094 107.523438 53.472656 105.222656 53.898438 C 104.992188 53.929688 104.757812 53.941406 104.53125 53.96875 C 101.976562 54.304688 99.453125 54.800781 96.988281 55.464844 C 96.984375 55.464844 96.976562 55.472656 96.972656 55.472656 L 94.691406 56.085938 L 94.792969 56.109375 C 94.667969 56.148438 94.535156 56.183594 94.40625 56.222656 C 92.003906 56.988281 89.664062 57.910156 87.394531 58.96875 C 87.246094 59.039062 87.09375 59.101562 86.945312 59.167969 C 85.363281 59.921875 83.820312 60.753906 82.308594 61.644531 C 82.277344 61.664062 82.25 61.675781 82.226562 61.691406 C 80.691406 62.609375 79.1875 63.59375 77.730469 64.660156 L 76.992188 65.195312 L 77.027344 65.210938 C 75.121094 66.636719 73.304688 68.175781 71.585938 69.820312 C 71.410156 69.984375 71.222656 70.140625 71.050781 70.304688 C 68.96875 72.347656 67.027344 74.554688 65.25 76.894531 C 65.25 76.894531 65.246094 76.898438 65.246094 76.898438 L 64.925781 77.320312 L 64.9375 77.332031 C 64.277344 78.226562 63.636719 79.128906 63.027344 80.050781 C 60.914062 83.273438 59.128906 86.679688 57.707031 90.210938 C 57.707031 90.21875 57.699219 90.222656 57.699219 90.230469 L 57.582031 90.554688 L 57.585938 90.566406 C 55.601562 95.558594 54.296875 100.789062 53.738281 106.125 C 53.738281 106.132812 53.738281 106.132812 53.738281 106.136719 L 53.714844 106.34375 L 53.722656 106.347656 C 53.523438 108.300781 53.414062 110.320312 53.414062 112.359375 C 53.414062 117.046875 53.960938 121.707031 55.046875 126.214844 C 60.921875 150.542969 81.210938 168.128906 105.582031 170.875 C 107.769531 171.261719 109.992188 171.472656 112.265625 171.472656 C 114.527344 171.472656 116.75 171.261719 118.929688 170.875 C 143.34375 168.132812 163.640625 150.539062 169.492188 126.183594 C 170.574219 121.695312 171.117188 117.039062 171.117188 112.359375 C 171.117188 110.320312 171.011719 108.292969 170.804688 106.320312 Z M 56.152344 125.828125 C 56.015625 125.25 55.90625 124.65625 55.78125 124.070312 C 55.679688 123.5625 55.558594 123.0625 55.46875 122.554688 C 55.355469 121.90625 55.277344 121.253906 55.179688 120.601562 C 55.109375 120.128906 55.023438 119.65625 54.972656 119.183594 C 54.890625 118.441406 54.835938 117.699219 54.78125 116.953125 C 54.753906 116.5625 54.699219 116.175781 54.679688 115.78125 C 54.609375 114.640625 54.574219 113.503906 54.574219 112.359375 C 54.574219 110.8125 54.65625 109.292969 54.773438 107.789062 C 57.871094 112.078125 61.382812 115.980469 65.269531 119.414062 C 65.980469 126.855469 67.796875 133.878906 70.523438 140.210938 C 65.109375 136.183594 60.25 131.355469 56.152344 125.828125 Z M 55.480469 102.171875 C 55.605469 101.460938 55.777344 100.761719 55.929688 100.058594 C 56.0625 99.460938 56.167969 98.859375 56.316406 98.265625 C 56.511719 97.484375 56.753906 96.722656 56.984375 95.953125 C 57.132812 95.445312 57.257812 94.933594 57.421875 94.425781 C 57.734375 93.464844 58.097656 92.511719 58.460938 91.566406 C 60.835938 94.335938 63.386719 96.910156 66.109375 99.246094 C 65.34375 103.464844 64.921875 107.847656 64.921875 112.359375 C 64.921875 114.152344 64.996094 115.921875 65.121094 117.679688 C 61.347656 114.214844 57.910156 110.339844 54.929688 106.042969 C 55.007812 105.347656 55.121094 104.65625 55.21875 103.960938 C 55.308594 103.371094 55.371094 102.765625 55.480469 102.171875 Z M 59.679688 88.644531 C 59.90625 88.136719 60.117188 87.625 60.363281 87.125 C 60.675781 86.480469 61.023438 85.847656 61.359375 85.214844 C 61.605469 84.761719 61.824219 84.292969 62.085938 83.84375 C 62.484375 83.144531 62.925781 82.460938 63.351562 81.769531 C 63.578125 81.40625 63.789062 81.03125 64.027344 80.664062 C 64.597656 79.792969 65.207031 78.949219 65.828125 78.109375 C 67.625 79.667969 69.496094 81.125 71.433594 82.492188 C 69.195312 87.25 67.464844 92.421875 66.363281 97.894531 C 63.722656 95.582031 61.226562 93.070312 58.933594 90.347656 C 59.164062 89.777344 59.429688 89.214844 59.679688 88.644531 Z M 67.9375 75.460938 C 68.308594 75.015625 68.660156 74.558594 69.042969 74.125 C 69.628906 73.464844 70.25 72.839844 70.863281 72.207031 C 71.234375 71.824219 71.585938 71.433594 71.960938 71.0625 C 72.660156 70.378906 73.394531 69.734375 74.128906 69.089844 C 74.453125 68.804688 74.761719 68.5 75.089844 68.21875 C 76.082031 67.386719 77.101562 66.589844 78.140625 65.828125 C 79.234375 66.425781 80.339844 66.996094 81.453125 67.53125 C 77.738281 71.515625 74.515625 76.207031 71.933594 81.433594 C 70.066406 80.113281 68.257812 78.699219 66.519531 77.191406 C 66.980469 76.597656 67.460938 76.027344 67.9375 75.460938 Z M 79.960938 64.539062 C 80.277344 64.324219 80.59375 64.113281 80.914062 63.902344 C 81.3125 63.640625 81.722656 63.390625 82.125 63.136719 C 82.457031 62.9375 82.78125 62.734375 83.109375 62.539062 C 83.519531 62.300781 83.933594 62.074219 84.34375 61.839844 C 84.679688 61.652344 85.015625 61.464844 85.359375 61.28125 C 85.777344 61.058594 86.199219 60.847656 86.625 60.636719 C 86.96875 60.46875 87.308594 60.289062 87.65625 60.132812 C 88.089844 59.925781 88.523438 59.738281 88.960938 59.542969 C 89.308594 59.390625 89.652344 59.230469 90 59.082031 C 90.457031 58.894531 90.917969 58.71875 91.378906 58.535156 C 91.714844 58.40625 92.050781 58.269531 92.390625 58.144531 C 92.898438 57.957031 93.414062 57.789062 93.929688 57.613281 C 94.230469 57.511719 94.527344 57.402344 94.828125 57.304688 C 94.996094 57.25 95.175781 57.210938 95.34375 57.152344 C 90.582031 59.4375 86.183594 62.648438 82.300781 66.617188 C 81.253906 66.125 80.207031 65.617188 79.1875 65.0625 C 79.4375 64.894531 79.699219 64.714844 79.960938 64.539062 Z M 130.496094 57.585938 C 131.050781 57.765625 131.601562 57.949219 132.148438 58.148438 C 132.460938 58.261719 132.769531 58.386719 133.074219 58.507812 C 133.566406 58.695312 134.054688 58.882812 134.539062 59.082031 C 134.867188 59.21875 135.199219 59.375 135.527344 59.515625 C 135.984375 59.714844 136.433594 59.914062 136.882812 60.125 C 137.222656 60.285156 137.554688 60.457031 137.890625 60.625 C 138.316406 60.835938 138.75 61.054688 139.175781 61.277344 C 139.519531 61.453125 139.847656 61.644531 140.183594 61.828125 C 140.597656 62.054688 141.007812 62.285156 141.417969 62.523438 C 141.753906 62.71875 142.078125 62.921875 142.410156 63.128906 C 142.808594 63.371094 143.210938 63.621094 143.605469 63.878906 C 143.933594 64.089844 144.253906 64.3125 144.578125 64.535156 C 144.828125 64.703125 145.082031 64.882812 145.332031 65.058594 C 144.308594 65.609375 143.261719 66.117188 142.210938 66.617188 C 138.328125 62.648438 133.933594 59.441406 129.175781 57.15625 C 129.355469 57.210938 129.53125 57.261719 129.707031 57.3125 C 129.972656 57.402344 130.234375 57.5 130.496094 57.585938 Z M 150.445312 69.121094 C 151.160156 69.757812 151.882812 70.390625 152.574219 71.0625 C 152.972656 71.453125 153.347656 71.875 153.734375 72.273438 C 154.320312 72.882812 154.917969 73.488281 155.480469 74.121094 C 155.890625 74.582031 156.265625 75.070312 156.660156 75.542969 C 157.109375 76.085938 157.5625 76.621094 157.988281 77.179688 C 156.253906 78.695312 154.4375 80.101562 152.578125 81.421875 C 149.996094 76.1875 146.773438 71.5 143.050781 67.511719 C 144.171875 66.972656 145.28125 66.402344 146.375 65.796875 C 147.421875 66.566406 148.445312 67.363281 149.4375 68.203125 C 149.785156 68.503906 150.101562 68.824219 150.445312 69.121094 Z M 160.484375 80.648438 C 160.683594 80.945312 160.851562 81.257812 161.046875 81.558594 C 161.519531 82.304688 161.992188 83.050781 162.429688 83.816406 C 162.644531 84.195312 162.839844 84.59375 163.050781 84.976562 C 163.429688 85.683594 163.816406 86.382812 164.164062 87.101562 C 164.375 87.535156 164.558594 87.980469 164.757812 88.417969 C 165.046875 89.054688 165.34375 89.6875 165.609375 90.332031 C 163.304688 93.066406 160.8125 95.582031 158.167969 97.902344 C 157.058594 92.421875 155.332031 87.25 153.097656 82.492188 C 155.03125 81.132812 156.902344 79.675781 158.703125 78.109375 C 159.304688 78.945312 159.914062 79.78125 160.484375 80.648438 Z M 136.597656 112.359375 C 136.597656 119.320312 136.074219 125.988281 135.117188 132.175781 C 128.039062 134.636719 120.527344 135.980469 112.839844 136.046875 L 112.839844 116.316406 C 121.054688 116.25 129.070312 114.761719 136.59375 112.015625 C 136.59375 112.125 136.597656 112.238281 136.597656 112.359375 Z M 66.515625 112.359375 C 66.515625 108.257812 66.863281 104.253906 67.515625 100.394531 C 73.332031 105.136719 79.820312 108.902344 86.761719 111.578125 C 86.761719 111.839844 86.75 112.097656 86.75 112.359375 C 86.75 119.152344 87.257812 125.675781 88.179688 131.753906 C 80.394531 128.886719 73.167969 124.644531 66.84375 119.222656 C 66.632812 116.964844 66.515625 114.683594 66.515625 112.359375 Z M 112.84375 58.230469 C 115.308594 58.210938 117.765625 58.070312 120.203125 57.796875 C 123.667969 60.644531 126.78125 65.285156 129.335938 71.273438 C 123.964844 72.628906 118.421875 73.328125 112.839844 73.375 L 112.839844 58.230469 Z M 112.84375 57.0625 L 112.84375 54.855469 C 113.488281 54.867188 114.125 54.886719 114.761719 54.925781 C 116.152344 55.261719 117.503906 55.894531 118.8125 56.765625 C 116.832031 56.953125 114.835938 57.042969 112.84375 57.0625 Z M 118.808594 55.4375 C 120.066406 55.664062 121.300781 55.960938 122.519531 56.316406 C 121.832031 56.417969 121.136719 56.503906 120.441406 56.589844 C 119.90625 56.167969 119.359375 55.773438 118.808594 55.4375 Z M 109.761719 54.925781 C 110.398438 54.878906 111.035156 54.863281 111.679688 54.855469 L 111.679688 57.0625 C 109.679688 57.042969 107.6875 56.945312 105.707031 56.765625 C 107.015625 55.898438 108.371094 55.265625 109.761719 54.925781 Z M 104.074219 56.589844 C 103.378906 56.507812 102.6875 56.417969 101.996094 56.316406 C 103.214844 55.960938 104.457031 55.664062 105.707031 55.4375 C 105.15625 55.773438 104.617188 56.167969 104.074219 56.589844 Z M 111.679688 58.230469 L 111.679688 73.375 C 106.101562 73.328125 100.558594 72.628906 95.179688 71.273438 C 97.742188 65.285156 100.855469 60.644531 104.3125 57.796875 C 106.753906 58.070312 109.214844 58.210938 111.679688 58.230469 Z M 111.679688 74.542969 L 111.679688 94.265625 C 104.144531 94.203125 96.738281 92.921875 89.734375 90.535156 C 90.910156 83.730469 92.621094 77.578125 94.734375 72.359375 C 100.257812 73.757812 105.945312 74.496094 111.679688 74.542969 Z M 111.679688 95.429688 L 111.679688 115.144531 C 103.460938 115.074219 95.449219 113.558594 87.941406 110.769531 C 88.015625 104.066406 88.578125 97.652344 89.539062 91.699219 C 96.613281 94.089844 104.074219 95.367188 111.679688 95.429688 Z M 112.84375 74.542969 C 118.574219 74.496094 124.265625 73.757812 129.785156 72.355469 C 131.902344 77.574219 133.609375 83.730469 134.789062 90.53125 C 127.777344 92.921875 120.378906 94.199219 112.84375 94.261719 Z M 130.832031 72.0625 C 134.5 71.074219 138.078125 69.773438 141.542969 68.207031 C 145.363281 72.21875 148.652344 76.992188 151.261719 82.339844 C 146.460938 85.585938 141.292969 88.203125 135.875 90.148438 C 134.679688 83.410156 132.960938 77.292969 130.832031 72.0625 Z M 130.382812 70.976562 C 127.917969 65.222656 124.949219 60.636719 121.636719 57.601562 C 122.734375 57.453125 123.828125 57.289062 124.914062 57.09375 C 130.726562 59.203125 136.058594 62.71875 140.671875 67.332031 C 137.34375 68.8125 133.90625 70.03125 130.382812 70.976562 Z M 102.878906 57.601562 C 99.566406 60.636719 96.597656 65.21875 94.132812 70.976562 C 90.609375 70.03125 87.167969 68.816406 83.839844 67.335938 C 88.453125 62.71875 93.792969 59.203125 99.601562 57.09375 C 100.6875 57.289062 101.78125 57.460938 102.878906 57.601562 Z M 93.683594 72.070312 C 91.554688 77.292969 89.835938 83.410156 88.648438 90.15625 C 83.230469 88.207031 78.054688 85.585938 73.257812 82.34375 C 75.871094 76.996094 79.160156 72.230469 82.972656 68.21875 C 86.433594 69.78125 90.011719 71.074219 93.683594 72.070312 Z M 88.449219 91.316406 C 87.457031 97.257812 86.878906 103.660156 86.78125 110.339844 C 79.90625 107.640625 73.488281 103.855469 67.753906 99.09375 C 68.808594 93.511719 70.503906 88.242188 72.753906 83.421875 C 77.648438 86.707031 82.921875 89.347656 88.449219 91.316406 Z M 87.925781 112.359375 C 87.925781 112.238281 87.929688 112.125 87.929688 112.011719 C 95.453125 114.761719 103.464844 116.25 111.683594 116.316406 L 111.683594 136.046875 C 103.996094 135.984375 96.488281 134.636719 89.402344 132.175781 C 88.441406 125.988281 87.925781 119.3125 87.925781 112.359375 Z M 111.679688 137.210938 L 111.679688 154.097656 C 105.828125 154.046875 100.0625 153.238281 94.496094 151.761719 C 92.421875 146.496094 90.753906 140.304688 89.613281 133.480469 C 96.644531 135.855469 104.074219 137.148438 111.679688 137.210938 Z M 111.679688 155.265625 L 111.679688 169.859375 C 111.035156 169.847656 110.398438 169.832031 109.761719 169.792969 C 104.035156 168.402344 98.894531 162.285156 95.042969 153.125 C 100.445312 154.480469 106.019531 155.214844 111.679688 155.265625 Z M 112.84375 169.859375 L 112.84375 155.265625 C 118.5 155.222656 124.078125 154.484375 129.480469 153.125 C 125.625 162.285156 120.480469 168.402344 114.761719 169.792969 C 114.125 169.832031 113.480469 169.847656 112.84375 169.859375 Z M 112.84375 154.097656 L 112.84375 137.210938 C 120.449219 137.148438 127.878906 135.855469 134.902344 133.480469 C 133.769531 140.304688 132.101562 146.496094 130.019531 151.761719 C 124.460938 153.246094 118.695312 154.046875 112.84375 154.097656 Z M 112.84375 115.144531 L 112.84375 95.429688 C 120.441406 95.367188 127.910156 94.089844 134.980469 91.699219 C 135.945312 97.652344 136.507812 104.066406 136.582031 110.769531 C 129.074219 113.566406 121.0625 115.074219 112.84375 115.144531 Z M 136.074219 91.316406 C 141.601562 89.347656 146.875 86.707031 151.769531 83.417969 C 154.011719 88.242188 155.714844 93.511719 156.765625 99.09375 C 151.035156 103.855469 144.617188 107.648438 137.742188 110.339844 C 137.640625 103.660156 137.058594 97.257812 136.074219 91.316406 Z M 67.015625 120.875 C 73.390625 126.152344 80.617188 130.277344 88.386719 133.058594 C 89.496094 139.863281 91.132812 146.066406 93.1875 151.410156 C 86.027344 149.359375 79.234375 146.179688 73.070312 142.007812 C 70.019531 135.65625 67.921875 128.507812 67.015625 120.875 Z M 93.730469 152.761719 C 96.9375 160.601562 101.0625 166.417969 105.707031 169.277344 C 92.546875 166.898438 81.179688 157.441406 74.128906 144.089844 C 80.183594 147.941406 86.792969 150.867188 93.730469 152.761719 Z M 130.789062 152.765625 C 137.726562 150.875 144.335938 147.945312 150.386719 144.089844 C 143.335938 157.441406 131.972656 166.890625 118.808594 169.277344 C 123.453125 166.425781 127.578125 160.609375 130.789062 152.765625 Z M 131.328125 151.410156 C 133.382812 146.066406 135.023438 139.859375 136.132812 133.050781 C 143.898438 130.273438 151.128906 126.148438 157.5 120.867188 C 156.597656 128.507812 154.496094 135.65625 151.441406 142.011719 C 145.28125 146.179688 138.488281 149.359375 131.328125 151.410156 Z M 136.335938 131.753906 C 137.257812 125.675781 137.765625 119.152344 137.765625 112.359375 C 137.765625 112.097656 137.757812 111.839844 137.757812 111.578125 C 144.703125 108.902344 151.195312 105.136719 157.011719 100.394531 C 157.664062 104.257812 158.011719 108.257812 158.011719 112.359375 C 158.011719 114.683594 157.886719 116.964844 157.675781 119.214844 C 151.34375 124.644531 144.117188 128.882812 136.335938 131.753906 Z M 158.410156 99.25 C 161.144531 96.90625 163.699219 94.332031 166.078125 91.554688 C 166.441406 92.5 166.804688 93.453125 167.117188 94.414062 C 167.261719 94.855469 167.367188 95.296875 167.5 95.738281 C 167.75 96.574219 168.011719 97.410156 168.222656 98.253906 C 168.351562 98.765625 168.4375 99.285156 168.550781 99.796875 C 168.730469 100.585938 168.917969 101.363281 169.054688 102.15625 C 169.148438 102.710938 169.210938 103.261719 169.292969 103.8125 C 169.402344 104.542969 169.519531 105.273438 169.597656 106.007812 C 166.613281 110.3125 163.167969 114.199219 159.390625 117.667969 C 159.515625 115.914062 159.589844 114.140625 159.589844 112.351562 C 159.59375 107.851562 159.179688 103.464844 158.410156 99.25 Z M 56.914062 128.675781 C 61.132812 133.921875 66.042969 138.496094 71.472656 142.300781 C 76.914062 153.808594 85.375 162.820312 95.492188 167.625 C 77.15625 162.097656 62.480469 147.671875 56.914062 128.675781 Z M 129.011719 167.632812 C 139.136719 162.832031 147.605469 153.8125 153.042969 142.300781 C 158.480469 138.484375 163.402344 133.90625 167.621094 128.644531 C 162.070312 147.671875 147.375 162.105469 129.011719 167.632812 Z M 169.855469 115.777344 C 169.832031 116.1875 169.78125 116.597656 169.746094 117.007812 C 169.691406 117.730469 169.640625 118.453125 169.558594 119.171875 C 169.503906 119.671875 169.410156 120.160156 169.34375 120.664062 C 169.253906 121.289062 169.179688 121.910156 169.066406 122.53125 C 168.96875 123.0625 168.847656 123.585938 168.734375 124.113281 C 168.621094 124.679688 168.511719 125.242188 168.382812 125.800781 C 164.285156 131.335938 159.417969 136.179688 153.996094 140.21875 C 156.722656 133.882812 158.535156 126.855469 159.246094 119.410156 C 163.140625 115.96875 166.652344 112.054688 169.753906 107.761719 C 169.871094 109.277344 169.953125 110.808594 169.953125 112.359375 C 169.953125 113.496094 169.917969 114.640625 169.855469 115.777344 Z M 169.855469 115.777344 " fill-opacity="1" fill-rule="nonzero"/></g></svg>